<defs>
<font horiz-adv-x="632" ><font-face
    font-family="texgyreschola-bold-italic"
    units-per-em="1000"
    panose-1="0 0 8 0 0 0 0 0 0 0"
    ascent="1162"
    descent="-371"
    alphabetic="0" />
<missing-glyph horiz-adv-x="280" />
<glyph unicode=" " glyph-name="space" horiz-adv-x="287" />
<glyph unicode="!" glyph-name="exclam" horiz-adv-x="333" d="M336 657Q336 633 329 615T281 514Q209 370 152 203L100 216Q145 418 151 567Q154 635 158 659T175 702Q199 737 238 737Q281 737 308 715T336 657ZM177 108T177 72T152 11T89 -15Q54 -15 29 11T3
72Q3 108 28 133T90 159T151 134Z" />
<glyph unicode="&quot;" glyph-name="quotedbl" horiz-adv-x="400" d="M269 663Q269 638 253 609L146 397L100 410L121 646Q129 734 195 734Q226 734 247 714T269 663ZM507 663Q507 638 491 609L384 397L338 410L359 646Q367 734 433 734Q464 734 485 714T507 663Z" />
<glyph unicode="#" glyph-name="numbersign" horiz-adv-x="574" d="M507 221H401L369 0H279L311 221H225L193 0H103L135 221H41V304H147L163 412H67V495H174L204 700H294L264 495H350L379 700H469L440 495H533V412H428L413 304H507V221ZM322 304L338 412H253L237
304H322Z" />
<glyph unicode="$" glyph-name="dollar" horiz-adv-x="574" d="M500 212Q500 146 459 89T351 6Q296 -15 227 -15H218L183 -145H129L166 -9Q91 5 47 48T3 151Q3 196 27 223T93 251Q126 251 147 232T169 181Q169 139 127 118Q102 104 102 91Q102 59 179 40L245 285L231
292Q96 355 96 475Q96 573 165 633T346 694H354L381 794H435L407 688Q478 675 518 634T559 532Q559 492 536 468T476 443Q444 443 424 463T404 515Q404 559 450 579Q463 585 463 594Q463 608 444 621T394 640L333 414L359 402Q426 370 463 320T500 212ZM381 153Q381
190 361 214T293 263L231 34Q297 36 339 69T381 153ZM286 438L341 644Q278 642 243 613T208 533Q208 471 286 438Z" />
<glyph unicode="%" glyph-name="percent" horiz-adv-x="889" d="M676 722L262 0H210L562 615Q507 597 464 597Q434 597 401 606Q404 581 404 569Q404 477 335 396T184 315Q126 315 89 351T51 443Q51 535 125 621T287 708Q343 708 380 660Q420 640 467 640Q567
640 629 722H676ZM364 582Q364 600 358 619Q323 632 300 658Q272 648 257 633T215 569Q155 464 155 418Q155 394 169 379T206 364Q263 364 313 433T364 582ZM836 283Q836 227 808 165T728 59T616 14Q557 14 519 49T481 140Q481 236 553 321T714 407Q767 407 801
372T836 283ZM794 280Q794 312 778 334T737 356Q698 356 655 287Q583 168 583 115Q583 93 597 78T633 63Q691 63 742 133T794 280Z" />
<glyph unicode="&amp;" glyph-name="ampersand" horiz-adv-x="889" d="M806 120Q719 -15 589 -15Q497 -15 439 48Q350 -15 248 -15Q151 -15 91 38T31 179Q31 269 87 323T270 425Q255 482 255 528Q255 629 312 683T472 737Q556 737 605 700T654 599Q654 538 605
498T439 425Q452 373 481 303T541 182Q590 233 608 258T626 304Q626 323 611 332T541 346L547 397H823L817 346Q764 341 734 318T633 203Q616 181 569 134Q603 94 621 81T663 67Q709 67 767 150L806 120ZM540 612Q540 644 523 664T479 685Q447 685 429 656T410
575Q410 529 425 477Q540 522 540 612ZM406 90Q330 212 283 372Q199 333 199 240Q199 167 237 118T334 69Q368 69 406 90Z" />
<glyph unicode="&apos;" glyph-name="quotesingle" horiz-adv-x="287" d="M269 663Q269 638 253 609L146 397L100 410L121 646Q129 734 195 734Q226 734 247 714T269 663Z" />
<glyph unicode="(" glyph-name="parenleft" horiz-adv-x="407" d="M251 -96L221 -118Q149 -45 110 47T71 238Q71 396 173 535T436 737L452 705Q382 665 340 616T263 489Q230 412 208 305T185 117Q185 -2 251 -96Z" />
<glyph unicode=")" glyph-name="parenright" horiz-adv-x="407" d="M308 381Q308 223 207 83T-54 -118L-70 -86Q-2 -46 40 3T116 130Q149 207 171 314T194 502Q194 620 128 715L158 737Q230 664 269 572T308 381Z" />
<glyph unicode="*" glyph-name="asterisk" horiz-adv-x="500" d="M472 563Q472 541 455 526T413 511Q402 511 366 518Q351 522 339 522Q320 522 295 515L278 510L290 498Q313 475 323 470T374 451Q426 434 426 392Q426 372 412 358T377 343Q351 343 332 367Q323
378 310 419Q300 450 272 479L259 492L254 474Q247 449 247 430Q247 420 256 378Q259 367 259 356Q259 332 244 315T206 297Q187 297 174 311T160 347Q160 363 166 375T197 417Q217 440 228 481L233 499L216 494Q186 485 175 479T134 444Q107 422 83 422Q62 422
47 436T32 470Q32 491 50 506T93 521Q103 521 138 515Q153 512 162 512Q179 512 209 520L226 524L214 537Q191 559 180 565T130 583Q78 600 78 643Q78 663 91 676T123 690Q151 690 170 665Q179 653 193 615Q200 596 207 586T232 556L245 543L250 560Q257 585 257
604Q257 615 248 656Q245 668 245 679Q245 702 260 719T298 737Q318 737 332 722T347 686Q347 669 341 658T308 617Q287 594 275 553L271 536L288 541Q319 550 329 556T370 590Q395 612 421 612Q442 612 457 598T472 563Z" />
<glyph unicode="+" glyph-name="plus" horiz-adv-x="606" d="M557 200H348V-9H248V200H39V300H248V509H348V300H557V200Z" />
<glyph unicode="," glyph-name="comma" horiz-adv-x="287" d="M180 43Q180 -30 127 -88T-27 -187L-48 -146Q86 -85 86 -9Q76 -11 62 -11Q25 -11 5 10T-16 68Q-16 108 10 133T78 159Q124 159 152 127T180 43Z" />
<glyph unicode="-" glyph-name="hyphen" horiz-adv-x="333" d="M272 310L237 180H10L45 310H272Z" />
<glyph unicode="." glyph-name="period" horiz-adv-x="287" d="M186 108T186 72T161 11T98 -15Q63 -15 38 11T12 72Q12 108 37 133T99 159T160 134Z" />
<glyph unicode="/" glyph-name="slash" horiz-adv-x="278" d="M311 737L49 -15H-25L237 737H311Z" />
<glyph unicode="0" glyph-name="zero" horiz-adv-x="574" d="M553 452Q553 329 508 221T385 49T221 -15Q130 -15 76 53T21 236Q21 356 69 465T195 639T358 705Q447 705 500 637T553 452ZM340 209Q366 294 386 404T406 572Q406 612 392 634T353 656Q283 656 230
469Q205 379 186 269T166 107Q166 74 181 55T223 36Q258 36 284 74T340 209Z" />
<glyph unicode="1" glyph-name="one" horiz-adv-x="574" d="M447 0H25L33 54H84Q146 54 160 68Q166 73 169 82T187 144L287 521Q300 552 294 568T250 585H160L173 635Q249 638 331 659T448 707H489L338 144Q325 92 325 81Q325 64 340 59T404 54H454L447 0Z" />
<glyph unicode="2" glyph-name="two" horiz-adv-x="574" d="M501 234L416 0H-40V6Q-40 37 -1 84T135 214Q273 334 314 386Q374 460 374 537Q374 584 344 614T265 644Q225 644 192 622T159 574Q159 563 166 557T198 539Q250 516 250 467Q250 431 228 409T169 386Q126
386 99 417T71 496Q71 586 142 645T322 705Q420 705 479 655T538 523Q538 419 417 324Q403 313 225 205Q149 159 125 135H321Q372 135 393 151T448 230L458 249L501 234Z" />
<glyph unicode="3" glyph-name="three" horiz-adv-x="574" d="M488 210Q488 113 409 49T210 -15Q111 -15 53 28T-5 148Q-5 193 20 221T86 249Q122 249 144 228T167 172Q167 118 115 102Q95 95 95 82Q95 65 122 50T180 35Q248 35 286 97T324 245Q324 339 257 339Q248
339 226 333Q215 329 203 329Q168 329 168 363Q168 379 177 388T201 398Q207 398 229 392T259 386Q311 386 346 441T382 555Q382 601 359 626T295 652Q264 652 238 640T212 612Q212 607 219 600Q245 580 253 566T262 532Q262 502 240 482T185 461Q149 461 126 485T103
548Q103 614 167 659T325 705Q419 705 478 661T538 545Q538 475 487 427T344 361Q422 341 455 307T488 210Z" />
<glyph unicode="4" glyph-name="four" horiz-adv-x="574" d="M524 184H404L393 144Q380 96 380 81Q380 64 395 59T459 54H477L470 0H107L114 54H139Q201 54 215 68Q221 74 224 83T242 144L252 184H-13V239L449 707H544L422 250H535L524 184ZM344 525L77 250H270L344 525Z" />
<glyph unicode="5" glyph-name="five" horiz-adv-x="574" d="M510 268Q510 146 424 66T206 -15Q112 -15 56 27T0 142Q0 188 25 216T92 244Q128 244 150 224T172 169Q172 109 113 91Q101 86 101 79Q101 62 126 49T184 36Q251 36 298 100T345 256Q345 317 318 352T244
387Q211 387 152 361Q144 303 99 303Q85 303 76 313T66 338Q66 370 105 388L197 705Q319 676 417 676Q489 676 557 702L567 705Q573 705 573 697Q573 674 556 642T515 589Q454 537 338 537Q291 537 223 551L213 553L175 424Q247 451 308 451Q400 451 455 401T510
268Z" />
<glyph unicode="6" glyph-name="six" horiz-adv-x="574" d="M520 253Q520 143 438 64T243 -15Q145 -15 88 51T30 230Q30 317 60 405T145 565Q252 705 405 705Q478 705 525 670T573 581Q573 544 550 520T488 496Q454 496 432 516T410 568Q410 594 432 620Q440 629
440 636Q440 644 430 649T404 654Q347 654 306 589T225 390Q275 431 338 431Q418 431 469 381T520 253ZM358 270Q358 318 342 344T294 371Q244 371 213 307T181 138Q181 31 245 31Q282 31 309 70T347 161T358 270Z" />
<glyph unicode="7" glyph-name="seven" horiz-adv-x="574" d="M593 667Q456 433 408 328T339 106Q328 49 314 27Q288 -15 233 -15Q193 -15 169 7T144 66T163 139T240 258L470 559H258Q211 559 184 539T126 462L110 432L64 448L167 705Q267 694 355 694Q441 694
592 705L593 667Z" />
<glyph unicode="8" glyph-name="eight" horiz-adv-x="574" d="M505 206Q505 109 427 47T224 -15Q124 -15 62 30T0 148Q0 273 172 339Q132 373 115 407T98 488Q98 583 168 644T349 705Q439 705 495 661T551 546Q551 436 406 382Q506 312 505 206ZM440 543Q440 595
412 625T333 655T251 626T219 550Q219 505 242 484T365 410Q440 461 440 543ZM375 148Q375 195 343 227T211 306Q170 285 146 243T121 153Q121 99 155 66T245 33Q300 33 337 66T375 148Z" />
<glyph unicode="9" glyph-name="nine" horiz-adv-x="574" d="M544 460Q544 372 514 284T429 125Q322 -15 169 -15Q96 -15 49 20T1 109Q1 146 24 170T86 194Q120 194 142 174T164 122Q164 96 142 70Q134 61 134 54Q134 46 144 41T170 36Q226 36 269 102T349 300Q320
277 296 268T236 259Q156 259 105 309T54 437Q54 547 136 626T331 705Q429 705 486 639T544 460ZM393 552Q393 659 329 659Q275 659 246 585T216 420Q216 372 232 346T280 319Q331 319 362 385T393 552Z" />
<glyph unicode=":" glyph-name="colon" horiz-adv-x="287" d="M172 108T172 72T147 11T84 -15Q49 -15 24 11T-2 72Q-2 108 23 133T85 159T146 134ZM257 430T257 394T232 333T169 307Q134 307 109 333T83 394Q83 430 108 455T170 481T231 456Z" />
<glyph unicode=";" glyph-name="semicolon" horiz-adv-x="287" d="M189 43Q189 -30 136 -88T-18 -187L-39 -146Q95 -85 95 -9Q85 -11 71 -11Q34 -11 14 10T-7 68Q-7 108 19 133T87 159Q133 159 161 127T189 43ZM257 430T257 394T232 333T169 307Q134 307 109 333T83
394Q83 430 108 455T170 481T231 456Z" />
<glyph unicode="&lt;" glyph-name="less" horiz-adv-x="606" d="M513 -36L60 206V294L513 536V422L189 250L513 78V-36Z" />
<glyph unicode="=" glyph-name="equal" horiz-adv-x="606" d="M557 290H39V390H557V290ZM557 110H39V210H557V110Z" />
<glyph unicode="&gt;" glyph-name="greater" horiz-adv-x="606" d="M513 206L60 -36V78L384 250L60 422V536L513 294V206Z" />
<glyph unicode="?" glyph-name="question" horiz-adv-x="481" d="M452 582Q452 520 413 473T281 376Q234 351 220 338T205 304Q205 285 217 274T251 262Q299 262 325 335L374 323Q358 272 320 242T233 212Q182 212 147 247T112 332Q112 452 264 538Q312 566 329
584T346 625Q346 654 326 671T273 689Q223 689 185 644T147 539Q147 537 147 535T148 528T149 520H101Q99 544 99 546Q99 621 152 679T285 737Q357 737 404 693T452 582ZM253 108T253 72T228 11T165 -15Q130 -15 105 11T79 72Q79 108 104 133T166 159T227 134Z"
/>
<glyph unicode="@" glyph-name="at" horiz-adv-x="747" d="M712 190Q674 96 580 41T386 -15Q234 -15 128 95T22 362Q22 518 129 627T388 737Q528 737 625 646T722 425Q722 317 648 232T479 147Q445 147 424 162T402 204Q402 206 404 220Q364 145 291 145Q235 145
197 188T159 294Q159 394 225 484T384 574Q444 574 477 522L489 556H593L501 268Q494 247 494 231Q494 208 518 208Q573 208 615 274T657 418Q657 531 581 603T387 676Q258 676 173 588T87 366Q87 230 173 138T388 46Q468 46 534 83T643 190H712ZM452 458T452 477T438
509T404 523Q353 523 307 428T260 256Q260 196 307 196Q355 196 392 280Q412 327 432 392Z" />
<glyph unicode="A" glyph-name="A" horiz-adv-x="741" d="M709 0H335L342 54H358Q408 54 424 62Q441 69 441 85Q441 98 437 117L417 220H185L139 139Q125 116 125 96Q125 73 140 64T196 54H219L211 0H-75L-68 54H-52Q10 54 71 157L419 736H481L612 114Q620 79
638 67T702 54H716L709 0ZM404 274L358 515L217 274H404Z" />
<glyph unicode="B" glyph-name="B" horiz-adv-x="759" d="M683 195Q683 93 597 47T368 0H-50L-43 54H-29Q23 54 38 68Q44 74 47 83T64 144L181 578Q194 626 194 641Q194 658 179 663T115 668H96L104 722H456Q720 722 720 551Q720 476 660 429T489 368Q683 334
683 195ZM537 567Q537 616 512 642T440 668H425Q398 668 387 657T365 608L308 397H339Q392 397 418 402T468 423Q500 445 518 483T537 567ZM492 233Q492 293 463 318T344 343H294L235 122Q227 94 227 84Q227 54 280 54H313Q401 54 446 101T492 233Z" />
<glyph unicode="C" glyph-name="C" horiz-adv-x="759" d="M679 212Q648 114 566 50T368 -15Q218 -15 127 68T35 292Q35 471 166 604T473 737Q590 737 657 655L713 712H759L701 426L652 432Q648 560 608 622T487 684Q428 684 377 641T293 530T243 385T225 238Q225
150 271 99T397 48Q465 48 526 94T616 212H679Z" />
<glyph unicode="D" glyph-name="D" horiz-adv-x="833" d="M796 437Q796 338 756 249T645 100Q580 46 498 23T285 0H-49L-42 54H-28Q24 54 39 68Q49 79 66 144L182 578Q195 627 195 641Q195 658 180 663T116 668H98L105 722H463Q796 722 796 437ZM610 501Q610 583
572 625T461 668H439Q405 668 390 656T365 605L237 127Q228 87 228 81Q228 66 240 60T281 54H310Q442 54 515 162Q556 223 583 319T610 501Z" />
<glyph unicode="E" glyph-name="E" horiz-adv-x="741" d="M602 0H-41L-34 54H-20Q25 54 39 62T62 102L190 578Q203 629 203 641Q203 658 188 663T124 668H105L113 722H728L688 477H636Q634 586 601 627T478 668H440Q409 668 397 659T377 620L318 401H349Q413 401
446 428T505 523L558 516L468 181L415 188Q420 226 420 250Q420 300 401 323T336 347H304L241 111Q234 87 235 79Q235 54 289 54H325Q411 54 489 108T616 259L668 248L602 0Z" />
<glyph unicode="F" glyph-name="F" horiz-adv-x="704" d="M686 477H634Q632 586 599 627T476 668H440Q409 668 397 659T377 620L318 401H349Q413 401 446 428T505 523L558 516L468 181L415 189Q420 225 420 250Q420 347 336 347H304L250 144Q236 94 236 81Q236
64 251 59T315 54H342L334 0H-41L-34 54H-20Q26 54 40 62T62 102L190 578Q203 629 203 641Q203 658 188 663T124 668H105L113 722H726L686 477Z" />
<glyph unicode="G" glyph-name="G" horiz-adv-x="815" d="M795 282H775Q760 282 750 281T732 280T719 274T710 267T702 255T696 240T690 218T682 192L627 -14H579L560 81Q480 -15 347 -15Q216 -15 125 65T34 284Q34 404 95 509T261 675T485 737Q547 737 588 719T670
657L730 715H775L718 432L667 439Q665 553 623 618T498 683Q379 683 298 531Q264 468 243 384T222 229Q222 140 258 89T363 37Q410 37 448 68T504 152Q528 224 528 255Q528 272 514 277T451 282H423L430 336H802L795 282Z" />
<glyph unicode="H" glyph-name="H" horiz-adv-x="870" d="M762 0H383L390 54H412Q464 54 478 68Q485 74 488 83T505 144L558 340H302L250 144Q236 96 236 81Q236 64 247 59T305 54H326L318 0H-41L-34 54H-15Q27 54 40 62T62 102Q63 105 67 120T73 144L190 578Q203
627 203 641Q203 658 188 663T124 668H105L113 722H488L481 668H459Q407 668 393 654Q386 649 383 640T366 578L318 401H574L621 578Q635 627 635 641Q635 658 624 663T566 668H545L553 722H912L905 668H888Q839 668 824 654Q818 649 815 640T798 578L681 144Q668
92 668 81Q668 64 683 59T747 54H769L762 0Z" />
<glyph unicode="I" glyph-name="I" horiz-adv-x="444" d="M332 0H-41L-34 54H-14Q35 54 49 68Q56 74 59 83T76 144L192 578Q206 626 206 641Q206 658 191 663T127 668H105L113 722H486L479 668H458Q410 668 396 654Q389 649 386 640T369 578L253 144Q239 89 239
81Q239 64 254 59T318 54H340L332 0Z" />
<glyph unicode="J" glyph-name="J" horiz-adv-x="667" d="M711 668H691Q645 668 630 654Q624 648 621 639T604 578L522 274Q496 177 490 157T470 113Q433 46 375 16T226 -15Q113 -15 52 32T-9 169Q-9 239 28 283T124 328Q172 328 201 302T231 231Q231 192 206
165T144 138Q133 138 118 143T90 154T77 160Q59 160 59 135Q59 96 91 69T170 42Q245 42 290 114Q307 141 314 162T342 260L427 578Q441 628 441 641Q441 658 426 663T362 668H332L340 722H718L711 668Z" />
<glyph unicode="K" glyph-name="K" horiz-adv-x="778" d="M749 0H375L382 54H413Q448 54 460 58T473 76Q473 84 462 107L360 320L276 243L250 144Q236 96 236 81Q236 64 247 59T305 54H326L318 0H-41L-34 54H-16Q30 54 47 68Q53 74 56 83T74 145L189 578Q203 627
203 641Q203 658 188 663T124 668H105L113 722H488L481 668H459Q407 668 393 654Q386 648 383 639T366 578L305 353L572 601Q602 630 602 643Q602 668 561 668H526L533 722H832L825 668Q772 665 735 648T653 587L491 437L634 129Q658 76 674 65T742 54H757L749
0Z" />
<glyph unicode="L" glyph-name="L" horiz-adv-x="704" d="M602 0H-41L-34 54H-14Q32 54 47 68Q53 74 56 83T73 144L190 578Q203 629 203 641Q203 658 188 663T124 668H105L113 722H495L487 668H469Q407 668 393 654Q386 648 383 639T366 578L250 144Q235 91 236
80Q236 65 247 60T289 54H325Q413 54 493 111T618 266L670 255L602 0Z" />
<glyph unicode="M" glyph-name="M" horiz-adv-x="944" d="M834 0H467L474 54H494Q540 54 554 68Q561 74 564 83T581 144L693 562L356 0H293L254 566L160 216Q139 132 139 109Q139 54 221 54L213 0H-24L-17 54Q24 57 45 88T93 216L190 578Q204 630 204 641Q204
658 189 663T125 668H106L113 722H406L441 259L719 722H988L981 668H960Q915 668 900 654Q894 649 891 640T874 578L757 144Q744 92 744 81Q744 64 759 59T823 54H842L834 0Z" />
<glyph unicode="N" glyph-name="N" horiz-adv-x="852" d="M905 668Q854 668 824 641Q803 620 795 602T763 505L624 -14H544L248 552L158 217Q137 133 137 109Q137 80 154 67T214 54H235L227 0H-57L-50 54Q1 56 31 81Q52 100 60 119T91 217L204 636Q187 668 145
668H89L96 722H350L618 215L696 505Q718 589 718 613Q718 668 628 668L635 722H912L905 668Z" />
<glyph unicode="O" glyph-name="O" horiz-adv-x="833" d="M797 441Q797 255 662 120T342 -15Q203 -15 120 67T36 286Q36 377 73 461T173 605T318 701T490 737Q620 737 708 652T797 441ZM533 196Q570 267 591 354T613 520Q613 596 580 639T487 683Q377 683 300
528Q263 453 239 358T215 193Q215 122 249 81T342 39Q450 39 533 196Z" />
<glyph unicode="P" glyph-name="P" horiz-adv-x="741" d="M731 533Q731 420 647 366T377 311H297L252 144Q238 93 238 81Q238 64 253 59T318 54H343L336 0H-38L-31 54H-13Q30 54 43 62T65 102L192 578Q206 630 206 641Q206 658 193 663T131 668H112L119 722H434Q520
722 579 709T670 669T717 611T731 533ZM552 563Q552 611 527 639T459 668H442Q410 668 399 659T378 615L311 365H360Q456 365 504 417T552 563Z" />
<glyph unicode="Q" glyph-name="Q" horiz-adv-x="833" d="M724 -52Q666 -186 536 -186Q458 -186 423 -144T388 -12Q352 -15 333 -15Q204 -15 120 68T35 282Q35 467 168 602T484 737Q618 737 707 653T796 437Q796 311 735 203T560 41Q567 -27 576 -60T591 -99T612
-104Q651 -104 682 -30L724 -52ZM614 512Q614 685 485 685Q366 685 288 506Q256 431 236 350T216 209Q216 192 219 154Q227 214 265 245T366 277Q479 277 525 180Q563 227 588 322T614 512ZM397 54Q410 122 410 149Q410 178 390 197T338 217Q304 217 281 191T258
124T281 61T346 38Q373 38 397 54Z" />
<glyph unicode="R" glyph-name="R" horiz-adv-x="796" d="M742 136Q692 -15 567 -15Q504 -15 464 25T424 127Q424 143 430 196T436 269Q436 350 344 350H304L249 144Q236 98 236 81T251 59T315 54H341L333 0H-41L-34 54H-14Q32 54 46 68Q53 74 56 83T73 144L189
578Q203 629 203 641Q203 658 189 663T126 668H105L112 722H459Q611 722 681 684T751 555Q751 382 464 359Q537 339 570 298T603 181V147Q603 98 604 89T610 72Q618 61 628 61Q664 61 699 157L742 136ZM567 570Q567 617 539 642T459 668H434Q407 668 397 661T380
630L319 404H353Q421 404 449 410T502 435Q567 484 567 570Z" />
<glyph unicode="S" glyph-name="S" horiz-adv-x="685" d="M612 224Q612 118 531 52T320 -15Q253 -15 203 3T103 65L45 0H1L51 283L103 275L102 245Q103 155 162 97T317 39Q387 39 430 70T474 152Q474 196 439 223T303 285Q241 306 212 321T158 359Q102 412 102
495Q102 599 178 668T368 737Q481 737 568 661L621 715H666L622 452L570 461Q566 570 516 626T380 683Q315 683 276 654T237 575Q237 536 259 511T349 464Q498 415 555 368T612 224Z" />
<glyph unicode="T" glyph-name="T" horiz-adv-x="722" d="M718 439L665 444Q668 479 668 504Q668 583 638 625T550 668Q528 668 522 662T507 623L379 144Q365 93 365 81Q365 64 380 59T445 54H470L463 0H66L73 54H100Q162 54 176 68Q183 74 186 83T203 144L333
629Q337 642 337 653Q337 668 309 668Q245 668 196 615T94 439L44 455L115 722H762L718 439Z" />
<glyph unicode="U" glyph-name="U" horiz-adv-x="833" d="M888 668Q840 668 810 641Q789 622 781 603T749 506L675 227Q641 101 569 43T371 -15Q242 -15 165 43T88 196Q88 238 105 303L179 578Q193 632 193 641Q193 658 180 663T118 668H95L102 722H478L470 668H448Q396
668 382 654Q375 648 372 639T355 578L274 274Q259 219 259 186Q259 120 298 84T409 47Q483 47 534 93T615 254L682 506Q704 589 704 613Q704 668 614 668L621 722H895L888 668Z" />
<glyph unicode="V" glyph-name="V" horiz-adv-x="741" d="M795 668Q749 661 724 641T662 560L324 -14H258L138 593Q128 641 115 654T64 668H32L39 722H406L398 668H371Q325 668 314 660Q304 652 304 641Q304 638 309 611L384 209L591 572Q610 606 610 629Q610
668 543 668H516L523 722H802L795 668Z" />
<glyph unicode="W" glyph-name="W" horiz-adv-x="944" d="M987 668Q940 660 914 632T855 524L622 -14H556L488 469L266 -14H200L114 630Q111 653 101 660T60 668H40L47 722H350L343 668H323Q297 668 290 662T283 632L284 616L328 264L476 593L473 623Q470 649
456 658T405 668H389L396 722H707L700 668H678Q653 668 642 662T632 640Q632 631 635 613L682 276L811 586Q824 616 824 632T809 658T770 668H752L759 722H994L987 668Z" />
<glyph unicode="X" glyph-name="X" horiz-adv-x="741" d="M698 0H311L318 54H359Q388 54 398 58T409 76Q409 86 399 109L326 279L191 147Q160 117 160 94Q160 54 226 54H248L241 0H-72L-65 54Q-28 53 5 70T83 129L300 342L174 622Q160 651 147 659T100 668H63L71
722H445L438 668H405Q374 668 363 664T351 648Q351 640 360 619L429 468L552 590Q576 612 576 636Q576 668 521 668H500L507 722H811L804 668Q750 664 721 649T633 577L453 404L585 109Q600 76 619 65T682 54H705L698 0Z" />
<glyph unicode="Y" glyph-name="Y" horiz-adv-x="704" d="M770 668Q723 667 692 646T616 567L416 307L373 144Q359 91 359 81Q359 64 374 59T439 54H464L457 0H68L75 54H94Q156 54 170 68Q177 74 180 83T197 144L240 307L123 611Q110 645 93 656T38 668H15L22
722H388L381 668H338Q312 668 303 663T294 644Q294 632 303 610L394 379L553 589Q570 611 570 632Q570 668 513 668H477L485 722H777L770 668Z" />
<glyph unicode="Z" glyph-name="Z" horiz-adv-x="704" d="M652 260L582 0H-29L-21 54L486 668H407Q310 668 243 622T117 468L68 478L134 722H715L707 668L197 54H288Q396 54 469 105T601 273L652 260Z" />
<glyph unicode="[" glyph-name="bracketleft" horiz-adv-x="407" d="M210 -108H-31L191 722H432L420 678H302L103 -64H221L210 -108Z" />
<glyph unicode="\" glyph-name="backslash" horiz-adv-x="606" d="M545 0H449L81 722H177L545 0Z" />
<glyph unicode="]" glyph-name="bracketright" horiz-adv-x="407" d="M192 -108H-49L-37 -64H81L280 678H162L173 722H414L192 -108Z" />
<glyph unicode="^" glyph-name="asciicircum" horiz-adv-x="606" d="M554 318H435L304 568L171 318H52L261 722H346L554 318Z" />
<glyph unicode="_" glyph-name="underscore" horiz-adv-x="500" d="M500 -129H0V-75H500V-129Z" />
<glyph unicode="`" glyph-name="grave" horiz-adv-x="333" d="M408 538H354L235 626Q215 641 230 670Q242 692 266 707T312 722Q330 722 338 714T358 677L408 538Z" />
<glyph unicode="a" glyph-name="a" horiz-adv-x="667" d="M646 157Q600 79 544 32T436 -15Q395 -15 373 9T351 73Q315 26 278 6T188 -14Q112 -14 64 37T15 167Q15 288 102 383T301 479Q390 479 426 416L440 464H597L499 132Q489 93 489 86Q489 80 493 75T503 70Q516
70 547 104T607 182L646 157ZM395 351Q395 383 378 403T333 424Q275 424 227 326T178 135Q178 99 194 78T239 56Q278 56 315 109T374 230T395 351Z" />
<glyph unicode="b" glyph-name="b" horiz-adv-x="611" d="M557 307Q557 244 528 181T446 69Q356 -15 232 -15Q140 -15 84 28T28 145Q28 169 31 183T50 252L147 578Q163 632 163 644Q163 663 151 669T101 675H77L84 722L351 736L260 427Q322 479 389 479Q460 479
508 430T557 307ZM347 141Q365 181 379 241T394 333T376 386T330 408Q274 408 228 316Q205 269 188 206T171 104Q171 70 189 49T237 28Q297 28 347 141Z" />
<glyph unicode="c" glyph-name="c" horiz-adv-x="537" d="M442 116Q338 -14 210 -14Q115 -14 59 36T3 171Q3 296 95 387T316 478Q394 478 440 443T487 350Q487 308 464 283T401 257Q367 257 345 277T323 329Q323 367 361 390Q373 398 373 406Q373 417 361 424T331
431Q267 431 220 344Q198 303 183 246T168 141Q168 100 191 74T250 47Q320 47 406 147L442 116Z" />
<glyph unicode="d" glyph-name="d" horiz-adv-x="667" d="M632 157Q605 110 566 66Q494 -15 422 -15Q382 -15 360 6T336 64V71Q295 24 259 5T174 -14Q98 -14 49 36T0 167Q0 288 87 383T286 478Q374 478 411 416L459 578Q474 628 474 644Q474 663 462 669T413 675H381L388
722L663 736L484 132Q474 93 474 85Q474 79 478 74T488 69Q501 69 532 102T593 182L632 157ZM329 153Q380 264 380 351Q380 383 363 403T319 423Q258 423 213 328Q164 225 164 135Q164 98 180 77T224 56Q284 56 329 153Z" />
<glyph unicode="e" glyph-name="e" horiz-adv-x="519" d="M430 91Q337 -14 202 -14Q103 -14 51 33T-2 171Q-2 294 93 386T314 479Q384 479 431 445T478 358Q478 254 308 205Q242 185 159 181Q157 155 157 137Q157 94 180 70T243 45Q282 45 316 63T395 126L430
91ZM356 385Q356 407 344 419T312 432Q265 432 225 376T168 228Q211 234 238 244Q289 263 322 303T356 385Z" />
<glyph unicode="f" glyph-name="f" horiz-adv-x="389" d="M550 627Q550 593 528 571T472 548Q443 548 424 567T404 614Q404 640 428 671L433 680Q433 690 411 690Q375 690 354 653T305 505L295 464H422L406 403H281L234 189Q188 -29 133 -179L-48 -205Q-5 -138
69 133L133 403H34L51 464H149Q186 598 241 658Q314 737 413 737Q473 737 511 706T550 627Z" />
<glyph unicode="g" glyph-name="g" horiz-adv-x="611" d="M602 466Q602 441 587 425T549 408Q515 408 499 451Q492 468 482 468Q466 468 448 444Q527 398 527 314Q527 246 468 202T317 157Q270 157 200 167Q178 170 166 170Q146 170 133 161T119 139Q119 109 168
105Q307 91 346 83Q401 70 425 42T450 -35Q450 -116 379 -159T172 -202Q59 -202 -3 -173T-66 -91Q-66 -17 60 6Q26 24 13 42T0 86Q0 168 120 206Q69 248 69 304Q69 381 132 430T296 479Q351 479 399 463Q469 533 530 533Q562 533 582 515T602 466ZM353 253Q379
305 379 361Q379 392 362 412T317 432Q276 432 251 389Q222 337 222 277Q222 243 239 224T287 205Q330 205 353 253ZM329 -85Q329 -51 285 -40Q233 -27 141 -27Q57 -27 57 -85Q57 -155 177 -155Q329 -155 329 -85Z" />
<glyph unicode="h" glyph-name="h" horiz-adv-x="685" d="M637 152Q579 62 530 24T426 -15Q379 -15 352 9T324 76Q324 106 345 163L406 332Q415 356 415 368Q415 378 406 386T386 395Q350 395 292 325Q233 253 195 127L157 0H0L171 578Q187 628 187 644Q187 663
175 669T125 675H101L108 722L376 736L266 366Q357 479 454 479Q503 479 534 450T566 376Q566 332 536 248L489 120Q478 90 478 82Q478 76 482 71T492 66Q506 66 527 88T589 166Q592 169 598 177L637 152Z" />
<glyph unicode="i" glyph-name="i" horiz-adv-x="389" d="M353 149Q302 63 253 24T146 -15Q101 -15 72 10T42 75Q42 98 57 149L108 319Q123 369 123 386Q123 405 111 411T62 417H38L45 464L312 478L207 122Q197 88 197 80Q197 64 213 64Q243 64 314 177L353 149ZM341
631Q341 601 320 580T269 559Q240 559 219 580T198 631T219 681T270 702Q299 702 320 681T341 631Z" />
<glyph unicode="j" glyph-name="j" horiz-adv-x="370" d="M359 478L240 75Q216 -4 200 -40T154 -112Q82 -202 -24 -202Q-87 -202 -128 -171T-170 -90Q-170 -53 -149 -30T-92 -7Q-58 -7 -38 -27T-18 -82Q-18 -102 -23 -111T-46 -131Q-52 -134 -52 -141Q-52 -153
-35 -153Q-6 -153 14 -121T60 0L155 319Q170 371 170 386Q170 405 158 411T109 417H77L84 464L359 478ZM386 631Q386 601 365 580T314 559Q285 559 264 580T243 631T264 681T315 702Q344 702 365 681T386 631Z" />
<glyph unicode="k" glyph-name="k" horiz-adv-x="648" d="M584 135Q546 56 503 21T403 -15Q354 -15 328 13T301 93Q301 116 306 148Q310 167 310 181Q310 189 305 198Q297 197 284 197Q248 197 248 226Q248 240 258 248T284 257T330 244Q444 282 444 351Q444 371
431 383T397 396Q346 396 280 316Q228 254 189 123L152 0H-5L166 578Q182 633 182 644Q182 663 170 669T120 675H97L103 722L371 736L262 371Q320 432 364 455T463 479Q515 479 548 452T581 381Q581 309 489 258Q451 236 387 215Q421 196 433 172T450 84Q452 65
466 65Q503 65 541 158L584 135Z" />
<glyph unicode="l" glyph-name="l" horiz-adv-x="389" d="M339 149Q308 93 253 41Q194 -15 128 -15Q82 -15 54 10T26 76Q26 109 49 182L166 578Q181 628 181 644Q181 663 169 669T120 675H96L103 722L370 736L188 122L183 106Q178 89 178 80Q178 63 193 63Q210
63 240 95T300 176L339 149Z" />
<glyph unicode="m" glyph-name="m" horiz-adv-x="944" d="M920 150Q814 -14 709 -14Q669 -14 641 11T612 71Q612 99 637 171L686 311Q699 348 699 370Q699 394 673 394Q637 394 589 336Q536 272 489 111L456 0H298L368 235Q399 340 399 370Q399 381 394 388T380
395Q349 395 296 326Q239 249 206 139L165 0H9L104 319Q119 372 119 386Q119 405 107 411T58 417H34L41 464L289 478L260 356Q354 479 448 479Q506 479 542 435Q560 410 560 374V368Q652 479 737 479Q786 479 816 451T846 375Q846 331 824 269L764 102Q759 87 759
79Q759 66 776 66Q790 66 808 85T876 170L882 177L920 150Z" />
<glyph unicode="n" glyph-name="n" horiz-adv-x="685" d="M642 152Q584 63 535 24T431 -15Q384 -15 357 9T329 76Q329 106 349 163L411 332Q420 356 420 368Q420 378 411 386T390 394Q353 394 295 325Q236 254 198 127L160 0H3L98 319Q113 371 113 386Q113 405
101 411T52 417H28L35 464L285 478L253 346Q309 418 356 448T458 479Q507 479 539 450T571 376Q571 330 540 248L493 120Q483 90 483 82Q483 76 487 71T497 66Q511 66 533 88T594 166L603 177L642 152Z" />
<glyph unicode="o" glyph-name="o" horiz-adv-x="574" d="M540 285Q540 158 448 72T220 -14Q124 -14 70 37Q42 62 26 102T10 187Q10 306 103 392T324 479Q422 479 484 425Q540 377 540 285ZM335 134Q356 186 370 250T385 354Q385 389 367 410T320 432Q256 432
210 322Q191 275 178 214T165 108Q165 71 182 50T229 29Q294 29 335 134Z" />
<glyph unicode="p" glyph-name="p" horiz-adv-x="648" d="M590 298Q590 175 503 80T303 -15Q217 -15 177 50L143 -65Q127 -120 127 -129Q127 -155 184 -155H199L192 -202H-118L-111 -155H-107Q-58 -155 -44 -141Q-37 -135 -34 -126T-15 -65L100 322Q115 372 115
386Q115 405 103 411T53 417H29L36 464L273 478L257 399Q327 479 415 479Q495 479 542 430T590 298ZM430 336Q430 369 413 389T366 409Q312 409 270 335Q247 293 227 225T206 117Q206 86 226 65T275 43Q331 43 372 122Q397 171 413 232T430 336Z" />
<glyph unicode="q" glyph-name="q" horiz-adv-x="630" d="M476 -202H163L170 -155H174Q224 -155 240 -141Q248 -133 269 -65L302 46Q237 -15 165 -15Q91 -15 46 36T0 170Q0 291 87 384T287 478Q385 478 425 402L513 478H587L426 -65Q411 -118 411 -129Q411 -155
467 -155H482L476 -202ZM318 137Q341 183 358 248T376 356Q376 385 359 404T315 423Q275 423 243 381Q211 337 187 262T163 129Q163 97 180 76T223 55Q275 55 318 137Z" />
<glyph unicode="r" glyph-name="r" horiz-adv-x="519" d="M524 391Q524 356 503 332T449 308Q425 308 406 321T382 357Q379 369 379 388Q379 401 369 401Q355 401 329 375Q292 340 258 276T202 139L160 0H3L98 319Q113 369 113 386Q113 405 101 411T52 417H28L35
464L285 478L254 351Q300 421 340 450T431 479Q473 479 498 455T524 391Z" />
<glyph unicode="s" glyph-name="s" horiz-adv-x="481" d="M399 149Q399 75 339 30T180 -15Q101 -15 52 17T2 101Q2 133 21 153T72 173Q102 173 122 155T143 109Q143 85 117 63Q112 58 112 54Q112 43 130 36T175 28Q216 28 243 47T270 97Q270 135 212 158Q151 184
128 198Q56 241 56 320Q56 393 110 436T258 479Q337 479 387 448T437 367Q437 336 418 317T368 297Q338 297 319 314T299 358Q299 376 317 399Q323 406 323 411Q323 419 306 425T267 432Q228 432 203 415T178 371Q178 351 195 336T256 302Q309 279 331 264Q399
220 399 149Z" />
<glyph unicode="t" glyph-name="t" horiz-adv-x="407" d="M337 156Q297 94 269 64Q196 -14 119 -14Q79 -14 52 10T24 69Q24 99 38 146Q44 163 49 183L114 403H27L45 464H132L188 650H345L290 464H404L386 403H272L202 167Q181 95 181 84Q181 77 185 72T196 66Q211
66 241 100T300 183L337 156Z" />
<glyph unicode="u" glyph-name="u" horiz-adv-x="685" d="M639 152Q580 62 532 24T427 -14Q330 -14 330 71Q330 87 331 97Q282 38 239 12T148 -14Q99 -14 69 16T38 95Q38 129 59 198L94 319Q110 371 110 386Q110 405 98 411T49 417H39L46 464L299 478L209 174Q208
170 206 164T202 149T197 133Q191 112 190 109Q188 97 188 95Q188 85 195 78T213 70Q232 70 264 95T323 159Q366 218 391 299L439 464H597L504 152Q488 96 488 85Q488 80 492 76T502 71Q515 71 542 101T601 180L639 152Z" />
<glyph unicode="v" glyph-name="v" horiz-adv-x="556" d="M500 390Q500 335 480 266T428 139Q342 -15 213 -15Q148 -15 101 26Q58 64 58 132Q58 172 70 211L102 319Q118 373 118 386Q118 405 106 411T56 417H32L39 464L306 478L233 230Q209 135 209 113T226 74T265
56Q316 56 365 131Q426 223 426 294Q426 310 420 319T382 357Q353 385 353 414T372 461T422 479Q457 479 478 455T500 390Z" />
<glyph unicode="w" glyph-name="w" horiz-adv-x="833" d="M788 390Q788 336 768 266T716 139Q628 -15 495 -15Q435 -15 397 15T345 103Q298 41 251 13T143 -15Q85 -15 54 13T22 95Q22 128 42 198L78 319Q94 374 94 386Q94 405 82 411T32 417H22L29 464L283 478L193
177Q179 126 179 108Q179 93 190 82T215 71Q271 71 318 145Q331 166 349 209T377 286L430 464H587L518 230Q494 135 494 113T510 74T548 56Q573 56 601 76T653 131Q714 222 714 296Q714 310 707 320T670 357Q641 383 641 414Q641 443 660 461T710 479Q745 479 766
455T788 390Z" />
<glyph unicode="x" glyph-name="x" horiz-adv-x="574" d="M508 169Q488 114 451 62Q398 -15 329 -15Q281 -15 252 22Q231 47 215 120L212 134L175 82Q143 37 105 11T32 -15T-26 6T-49 61Q-49 91 -31 110T18 129Q64 129 77 79Q80 68 86 68Q107 68 157 139L198 196L184
261Q168 337 159 358T136 379T109 364T66 296L60 286L20 306Q45 357 75 395Q139 479 207 479Q251 479 276 448T317 344L339 373Q385 434 417 456T490 479Q526 479 548 459T571 407Q571 377 553 358T506 338T463 352T447 393Q446 405 438 405Q413 405 330 282L346
200Q360 130 369 109T394 88Q429 88 469 189L508 169Z" />
<glyph unicode="y" glyph-name="y" horiz-adv-x="519" d="M492 417Q492 374 452 282T345 83Q256 -64 181 -139Q119 -202 40 -202Q-8 -202 -37 -177T-66 -111Q-66 -79 -46 -59T5 -38Q35 -38 54 -56T74 -102Q74 -114 68 -130L67 -136Q67 -146 80 -146Q100 -146 132
-121T190 -58L219 -18L119 320Q111 348 106 356T90 365Q77 365 67 346T36 258L-7 271Q42 479 155 479Q209 479 233 432Q253 394 270 333L326 143Q393 256 393 301Q393 323 374 354Q353 385 353 413Q353 442 373 460T424 479T473 463T492 417Z" />
<glyph unicode="z" glyph-name="z" horiz-adv-x="519" d="M460 153Q435 72 383 29T259 -15Q219 -15 187 -3T86 49Q71 57 65 57Q51 57 51 28Q49 -15 13 -15Q0 -15 -9 -5T-19 19Q-19 55 47 131Q123 217 224 271Q243 281 264 292T296 308T307 314Q309 315 316 319T332
330T350 342Q308 328 268 328Q241 328 178 338Q136 345 122 345Q98 345 87 335T58 286L16 301Q78 479 214 479Q267 479 348 436Q381 418 392 418Q405 418 413 450Q422 479 441 479Q453 479 462 469T471 446Q471 388 358 280Q323 247 293 228T174 163Q146 149 110
126Q167 136 200 136Q243 136 295 121Q342 107 350 107Q387 107 416 169L460 153Z" />
<glyph unicode="{" glyph-name="braceleft" horiz-adv-x="407" d="M194 -65L182 -108H140Q99 -108 76 -85T52 -21Q52 15 69 74L90 154Q103 202 103 225Q103 250 92 264T52 285L64 329Q113 341 135 368T172 462L202 572Q224 655 262 688T371 722H402L390 679Q353
675 333 649T294 553L261 432Q244 374 217 346T140 307Q205 288 205 240Q205 220 192 175L164 71Q147 8 147 -16Q147 -42 157 -53T194 -65Z" />
<glyph unicode="|" glyph-name="bar" horiz-adv-x="606" d="M348 -108H248V722H348V-108Z" />
<glyph unicode="}" glyph-name="braceright" horiz-adv-x="407" d="M322 329L310 285Q260 274 238 247T200 152L170 42Q148 -41 110 -74T1 -108H-30L-18 -65Q19 -61 39 -35T78 61L111 182Q128 240 155 268T232 307Q167 326 167 374Q167 391 180 439L208 543Q225
606 225 630Q225 656 215 667T178 679L190 722H232Q273 722 296 699T320 635Q320 601 304 540L282 460Q269 412 269 389Q269 363 281 350T322 329Z" />
<glyph unicode="~" glyph-name="asciitilde" horiz-adv-x="606" d="M555 273Q493 160 411 160Q379 160 321 183L268 202Q220 221 202 221Q185 221 171 210T135 169L51 222Q111 335 195 335Q224 335 285 312L338 293Q386 274 404 274Q421 274 435 285T471 326L555 273Z" />
<glyph unicode="&#xa0;" glyph-name="uni00A0" horiz-adv-x="333" />
<glyph unicode="&#xa1;" glyph-name="exclamdown" horiz-adv-x="333" d="M286 -223Q262 -258 223 -258Q180 -258 153 -236T125 -178Q125 -154 132 -136T180 -35Q252 109 309 276L361 263Q316 60 310 -88Q307 -156 303 -180T286 -223ZM458 407Q458 371 433 346T371
320T310 345T284 407T309 468T372 494Q407 494 432 468T458 407Z" />
<glyph unicode="&#xa2;" glyph-name="cent" horiz-adv-x="574" d="M470 116L464 109Q404 41 358 15T243 -15L188 -137H134L190 -12Q125 -7 78 48T30 174Q30 299 123 391T343 484Q373 484 408 476L457 586H511L454 457Q514 421 514 351Q514 311 490 285T427 259Q396
259 374 278L271 48H278Q324 48 373 88Q390 101 434 147L470 116ZM403 411Q403 421 390 429T359 437Q291 437 244 341Q223 299 209 242T194 145Q194 97 225 66L357 360Q365 376 372 384T397 403L403 411Z" />
<glyph unicode="&#xa3;" glyph-name="sterling" horiz-adv-x="574" d="M542 180Q485 -15 351 -15Q267 -15 197 49Q144 -15 77 -15Q34 -15 8 9T-18 72Q-18 114 12 141T89 168Q116 168 165 156Q168 183 168 197Q168 254 148 319H18L26 376H140L139 421Q139 547 210
626T396 705Q472 705 519 666T566 564Q566 523 542 496T479 469Q446 469 425 488T403 538Q403 560 413 575T450 609Q461 617 461 627Q461 640 448 647T415 655Q360 655 328 599T296 444L298 376H435L426 319H298Q294 230 249 136Q304 115 369 115Q459 115 499 200L542
180ZM146 84L140 89Q101 118 69 118Q52 118 41 106T29 74Q29 53 41 41T75 28Q100 28 115 40T146 84Z" />
<glyph unicode="&#xa4;" glyph-name="currency" horiz-adv-x="574" d="M546 175L469 97L426 140Q360 102 293 102Q225 102 160 141L118 98L41 176L83 218Q45 277 45 350Q45 427 83 483L40 526L117 603L160 560Q219 599 294 599Q360 599 426 561L468 603L546 526L503
483Q541 423 541 350Q541 279 503 218L546 175ZM420 298T420 351T383 441T293 478T203 441T166 351T203 261T292 223Q345 223 382 260Z" />
<glyph unicode="&#xa5;" glyph-name="yen" horiz-adv-x="574" d="M628 652Q591 639 568 620T509 552L385 375H516L510 329H353L330 244H475L469 198H318L304 145Q290 95 290 81Q290 64 305 59T369 54H382L374 0H36L44 54H56Q111 54 125 68Q132 74 135 83T152 145L166
198H25L31 244H179L201 329H54L60 375H185L107 595Q94 629 77 640T23 652L30 706H321L313 652H291Q265 652 256 647T247 628Q247 620 256 594L328 384L453 573Q470 599 470 617Q470 633 455 642T413 652H397L404 706H635L628 652Z" />
<glyph unicode="&#xa6;" glyph-name="brokenbar" horiz-adv-x="606" d="M348 390H248V722H348V390ZM348 -108H248V224H348V-108Z" />
<glyph unicode="&#xa7;" glyph-name="section" horiz-adv-x="500" d="M455 297Q455 235 405 188T289 140Q278 140 269 141Q322 81 322 21Q322 -49 267 -96T131 -144Q59 -144 10 -110T-40 -26Q-40 9 -21 30T30 51Q60 51 80 32T101 -15Q101 -29 92 -43T72 -67T62
-79Q62 -88 83 -96T129 -104Q167 -104 190 -86T213 -36Q213 -4 189 30T79 157Q39 200 24 231T8 297Q8 361 55 408T166 455Q171 455 193 453Q164 493 154 519T143 576Q143 647 196 692T333 737Q407 737 456 703T505 616Q505 586 484 566T431 545Q401 545 381 563T361
610Q361 641 392 666Q400 673 400 676Q400 684 381 691T339 698Q302 698 277 678T251 628Q251 600 272 568T361 463Q416 404 435 369T455 297ZM348 235Q348 273 287 342Q220 417 177 417Q150 417 133 401T115 359Q115 337 126 317T170 260Q212 213 235 197T283
180Q310 180 329 196T348 235Z" />
<glyph unicode="&#xa8;" glyph-name="dieresis" horiz-adv-x="333" d="M312 631Q312 601 291 580T240 559Q211 559 190 580T169 631T190 681T241 702Q270 702 291 681T312 631ZM502 631Q502 601 481 580T430 559Q401 559 380 580T359 631T380 681T431 702Q460
702 481 681T502 631Z" />
<glyph unicode="&#xa9;" glyph-name="copyright" horiz-adv-x="747" d="M723 485T723 339T619 90T369 -14T120 89T16 339T119 589T369 693T619 589ZM675 212T675 339T586 555T369 645T153 556T64 339T153 123T369 34T585 123ZM566 512L538 366L501 370Q495 487
415 487Q376 487 347 452T306 371T296 281Q297 241 319 218T379 195Q414 195 444 216T486 270H530Q516 220 471 187T361 153Q278 153 226 194T173 305Q170 394 241 459T410 524Q472 524 508 488L534 512H566Z" />
<glyph unicode="&#xaa;" glyph-name="ordfeminine" horiz-adv-x="412" d="M449 545Q418 497 381 470T308 442Q284 442 268 455T252 488Q252 491 253 493Q205 442 145 442Q94 442 62 472T29 551Q29 624 87 680T220 737Q277 737 302 700L312 728H417L351 529Q344
506 344 502Q344 492 353 492Q361 492 383 513T423 559L449 545ZM282 661Q282 680 271 692T241 704Q202 704 170 647Q138 585 138 531Q138 509 149 497T179 484Q217 484 248 542Q282 610 282 661ZM391 351L375 293H29L45 351H391Z" />
<glyph unicode="&#xab;" glyph-name="guillemotleft" horiz-adv-x="481" d="M158 90Q158 78 146 78Q138 78 130 86L-30 237L-35 245Q-35 249 -28 253L194 413Q203 419 210 419Q215 419 219 415T224 405T215 389L80 247L155 100Q158 96 158 90ZM361 90Q361 78 349
78Q341 78 333 86L173 237L168 245Q168 249 175 253L397 413Q406 419 413 419Q418 419 422 415T427 405T418 389L283 247L358 100Q361 96 361 90Z" />
<glyph unicode="&#xac;" glyph-name="logicalnot" horiz-adv-x="606" d="M557 390V160H457V290H39V390H557Z" />
<glyph unicode="&#xad;" glyph-name="uni00AD" horiz-adv-x="333" d="M272 310L237 180H10L45 310H272Z" />
<glyph unicode="&#xae;" glyph-name="registered" horiz-adv-x="747" d="M723 485T723 339T619 90T369 -14T120 89T16 339T119 589T369 693T619 589ZM675 212T675 339T586 555T369 645T153 556T64 339T153 123T369 34T585 123ZM581 234Q556 157 479 157Q442 157
418 177T392 230Q392 238 394 263T397 298Q396 331 357 331H347L322 239Q316 216 316 210T322 203T349 202H364L359 164H156L161 202H175Q192 202 196 205Q199 208 207 239L263 446Q269 469 269 476Q269 482 264 483T238 484H225L229 521H416Q501 521 540 502T581
436Q584 357 453 339Q507 317 508 257Q511 230 512 211L513 205Q530 205 546 249L581 234ZM462 442Q460 484 413 484H400Q388 484 385 471L357 369Q416 369 432 381Q462 403 462 442Z" />
<glyph unicode="&#xaf;" glyph-name="overscore" horiz-adv-x="333" d="M513 668L492 592H158L179 668H513Z" />
<glyph unicode="0;" glyph-name="degree" horiz-adv-x="400" d="M370 533Q370 469 327 425T220 380T114 424T70 534Q70 598 114 642T223 686Q285 686 327 642T370 533ZM313 493T313 533T287 601T222 629Q182 629 154 601T126 533T154 465T220 437Q259 437 286 465Z" />
<glyph unicode="1;" glyph-name="plusminus" horiz-adv-x="606" d="M557 300H348V190H248V300H39V400H248V609H348V400H557V300ZM557 0H39V100H557V0Z" />
<glyph unicode="2;" glyph-name="two.superior" horiz-adv-x="344" d="M340 425L285 282H-16V287Q-16 308 7 334T98 414Q180 480 211 514Q247 556 247 599Q247 627 228 644T177 662Q154 662 134 651T114 626Q114 620 118 617T138 606Q174 593 174 561Q174
538 159 524T118 510Q89 510 70 529T51 579Q51 634 97 669T215 705Q280 705 320 675T360 594Q360 543 311 497Q280 470 217 436Q157 403 102 368H221Q253 368 266 377T298 422L306 436L340 425Z" />
<glyph unicode="3;" glyph-name="three.superior" horiz-adv-x="344" d="M320 409Q320 351 269 313T139 274Q74 274 35 301T-4 373Q-4 401 13 418T59 436Q83 436 98 422T114 387Q114 354 72 341Q68 340 68 336Q68 327 85 319T121 310Q160 310 183 342T207
428Q207 483 166 483Q160 483 146 479Q136 477 131 477Q105 477 105 499Q105 510 112 516T130 523Q136 523 148 520Q162 517 168 517Q196 517 218 545T240 610Q240 637 226 652T186 667Q168 667 153 661T138 647Q139 644 142 643Q171 623 171 599Q171 580 156 567T118
554Q93 554 77 569T61 609Q61 649 103 677T206 705Q269 705 308 678T348 606Q348 569 320 541T246 501L242 500Q241 499 240 499Q238 498 237 498Q266 491 280 482Q298 472 309 452T320 409Z" />
<glyph unicode="4;" glyph-name="acute" horiz-adv-x="333" d="M462 670Q462 642 434 626L268 538H214L338 677Q364 705 377 713T408 722Q431 722 446 707T462 670Z" />
<glyph unicode="5;" glyph-name="mu" horiz-adv-x="685" d="M639 152Q581 61 533 24T427 -14Q330 -14 330 70Q330 87 331 97Q282 38 239 12T148 -14Q99 -14 68 23Q60 -1 60 -21Q60 -34 64 -72T69 -117Q69 -158 39 -188T-32 -219Q-57 -219 -73 -206T-90 -171T-80
-129T-34 -56Q-2 -10 6 20L94 319Q110 374 110 386Q110 404 99 410T49 417H39L46 478H299L209 174Q208 172 202 154T192 121T188 95T195 78T212 70Q253 70 309 141T391 299L439 464H597L504 152Q488 99 488 85Q488 80 492 76T502 71Q530 71 601 180L639 152Z" />
<glyph unicode="6;" glyph-name="paragraph" horiz-adv-x="650" d="M432 -144H67L82 -90H88Q131 -90 145 -68Q149 -60 164 -3L252 325H243Q166 325 122 362T77 465Q77 516 103 571T171 662Q242 722 372 722H661L646 668H643Q603 668 587 654Q580 648 577 639T561
581L404 -3L394 -42Q389 -59 389 -68Q389 -90 440 -90H446L432 -144ZM483 668H445L242 -89H280L483 668Z" />
<glyph unicode="7;" glyph-name="middot" horiz-adv-x="287" d="M233 289T233 250T205 184T139 156Q100 156 73 183T45 250T72 316T139 344Q177 344 205 317Z" />
<glyph unicode="8;" glyph-name="cedilla" horiz-adv-x="333" d="M157 -133Q157 -172 120 -196T22 -220Q-46 -220 -87 -191L-65 -156Q-22 -175 7 -175Q29 -175 42 -165T56 -137Q56 -122 44 -112T14 -102Q5 -102 -15 -106L-32 -89L39 5H84L38 -61Q58 -58 71
-58Q108 -58 132 -79T157 -133Z" />
<glyph unicode="9;" glyph-name="one.superior" horiz-adv-x="344" d="M294 282H21L26 321H63Q95 321 104 325T118 346Q119 349 121 357T125 371L186 592Q190 608 190 614Q190 627 164 627H102L112 663Q162 664 215 677T292 706H323L230 371Q222 339 222 335Q222
326 231 324T271 321H299L294 282Z" />
<glyph unicode="a;" glyph-name="ordmasculine" horiz-adv-x="356" d="M383 622Q383 545 322 494T170 442Q105 442 67 474T29 563Q29 634 91 685T239 737Q305 737 344 706T383 622ZM247 531Q280 606 280 663Q280 684 268 696T236 709Q194 709 163 643Q133
578 133 516Q133 468 175 468Q219 468 247 531ZM349 351L333 293H29L45 351H349Z" />
<glyph unicode="b;" glyph-name="guillemotright" horiz-adv-x="481" d="M253 252Q253 248 246 244L24 84Q15 78 8 78Q3 78 -1 82T-6 92Q-6 98 3 108L138 250L63 397Q60 402 60 407Q60 419 72 419Q80 419 88 411L248 260L253 252ZM456 252Q456 248 449 244L227
84Q218 78 211 78Q206 78 202 82T197 92Q197 98 206 108L341 250L266 397Q263 402 263 407Q263 419 275 419Q283 419 291 411L451 260L456 252Z" />
<glyph unicode="c;" glyph-name="onequarter" horiz-adv-x="861" d="M680 722L261 0H181L601 722H680ZM811 109H735L729 88Q721 60 721 52T730 42T768 39H783L777 0H542L548 39H566Q604 39 612 46Q616 50 628 90L633 109H467V147L760 424H826L748 155H819L811
109ZM294 282H21L26 321H63Q95 321 104 325T118 346Q119 349 121 357T125 371L186 592Q190 608 190 614Q190 627 164 627H102L112 663Q162 664 215 677T292 706H323L230 371Q222 339 222 335Q222 326 231 324T271 321H299L294 282ZM688 303L535 155H646L688 303Z"
/>
<glyph unicode="d;" glyph-name="onehalf" horiz-adv-x="861" d="M685 722L265 0H186L605 722H685ZM294 282H21L26 321H63Q95 321 104 325T118 346Q119 349 121 357T125 371L186 592Q190 608 190 614Q190 627 164 627H102L112 663Q162 664 215 677T292 706H323L230
371Q222 339 222 335Q222 326 231 324T271 321H299L294 282ZM837 143L782 0H481Q478 21 502 48T595 132Q682 202 708 232Q744 273 744 316Q744 344 725 361T674 379Q651 379 631 368T611 343Q611 337 615 334T635 324Q671 310 671 279Q671 256 656 242T615 228Q586
228 567 247T548 297Q548 351 594 386T712 422Q777 422 817 392T857 311T808 215Q777 187 714 154Q654 121 599 86H718Q750 86 763 95T795 139L803 154L837 143Z" />
<glyph unicode="e;" glyph-name="threequarters" horiz-adv-x="861" d="M694 722L275 0H195L615 722H694ZM811 109H735L729 88Q721 60 721 52T730 42T768 39H783L777 0H542L548 39H566Q604 39 612 46Q616 50 628 90L633 109H467V147L760 424H826L748 155H819L811
109ZM320 409Q320 351 269 313T139 274Q74 274 35 301T-4 373Q-4 401 13 418T59 436Q83 436 98 422T114 387Q114 354 72 341Q68 340 68 336Q68 327 85 319T121 310Q160 310 183 342T207 428Q207 483 166 483Q160 483 146 479Q136 477 131 477Q105 477 105 499Q105
510 112 516T130 523Q136 523 148 520Q162 517 168 517Q196 517 218 545T240 610Q240 637 226 652T186 667Q168 667 153 661T138 647Q139 644 142 643Q171 623 171 599Q171 580 156 567T118 554Q93 554 77 569T61 609Q61 649 103 677T206 705Q269 705 308 678T348
606Q348 569 320 541T246 501L242 500Q239 499 237 498Q266 491 280 482Q298 472 309 452T320 409ZM688 303L535 155H646L688 303Z" />
<glyph unicode="f;" glyph-name="questiondown" horiz-adv-x="481" d="M510 -67Q510 -142 457 -200T324 -258Q252 -258 205 -214T157 -103Q157 -41 196 6T328 103Q375 128 389 141T404 175Q404 194 392 205T358 217Q310 217 284 144L235 156Q251 207 289 237T376
267Q427 267 462 232T497 147Q497 27 345 -59Q297 -87 280 -105T263 -146Q263 -175 283 -192T336 -210Q386 -210 424 -165T462 -60Q462 -58 462 -56T461 -49T460 -41H508Q510 -65 510 -67ZM530 407Q530 371 505 346T443 320T382 345T356 407T381 468T444 494Q479
494 504 468T530 407Z" />
<glyph unicode="0;" glyph-name="Agrave" horiz-adv-x="741" d="M709 0H335L342 54H358Q408 54 424 62Q441 69 441 85Q441 98 437 117L417 220H185L139 139Q125 116 125 96Q125 73 140 64T196 54H219L211 0H-75L-68 54H-52Q10 54 71 157L419 736H481L612 114Q620
79 638 67T702 54H716L709 0ZM404 274L358 515L217 274H404ZM582 770H517L361 850Q335 864 348 889Q359 909 385 922T438 936Q460 936 472 929T501 896L582 770Z" />
<glyph unicode="1;" glyph-name="Aacute" horiz-adv-x="741" d="M709 0H335L342 54H358Q408 54 424 62Q441 69 441 85Q441 98 437 117L417 220H185L139 139Q125 116 125 96Q125 73 140 64T196 54H219L211 0H-75L-68 54H-52Q10 54 71 157L419 736H481L612 114Q620
79 638 67T702 54H716L709 0ZM404 274L358 515L217 274H404ZM633 889Q633 864 599 850L400 770H335L484 896Q513 921 529 928T568 936Q595 936 614 923T633 889Z" />
<glyph unicode="2;" glyph-name="Acircumflex" horiz-adv-x="741" d="M709 0H335L342 54H358Q408 54 424 62Q441 69 441 85Q441 98 437 117L417 220H185L139 139Q125 116 125 96Q125 73 140 64T196 54H219L211 0H-75L-68 54H-52Q10 54 71 157L419 736H481L612
114Q620 79 638 67T702 54H716L709 0ZM404 274L358 515L217 274H404ZM665 775H595L487 853L335 775H255L443 932H565L665 775Z" />
<glyph unicode="3;" glyph-name="Atilde" horiz-adv-x="741" d="M709 0H335L342 54H358Q408 54 424 62Q441 69 441 85Q441 98 437 117L417 220H185L139 139Q125 116 125 96Q125 73 140 64T196 54H219L211 0H-75L-68 54H-52Q10 54 71 157L419 736H481L612 114Q620
79 638 67T702 54H716L709 0ZM404 274L358 515L217 274H404ZM666 916Q664 866 627 828T542 790Q512 790 457 811Q404 832 385 832Q351 832 343 790H296Q300 845 335 880T420 916Q451 916 499 897Q552 876 569 876Q607 876 619 916H666Z" />
<glyph unicode="4;" glyph-name="Adieresis" horiz-adv-x="741" d="M709 0H335L342 54H358Q408 54 424 62Q441 69 441 85Q441 98 437 117L417 220H185L139 139Q125 116 125 96Q125 73 140 64T196 54H219L211 0H-75L-68 54H-52Q10 54 71 157L419 736H481L612
114Q620 79 638 67T702 54H716L709 0ZM404 274L358 515L217 274H404ZM458 854Q458 824 437 803T386 782Q357 782 336 803T315 854T336 904T387 925Q416 925 437 904T458 854ZM648 854Q648 824 627 803T576 782Q547 782 526 803T505 854T526 904T577 925Q606 925
627 904T648 854Z" />
<glyph unicode="5;" glyph-name="Aring" horiz-adv-x="741" d="M709 0H335L342 54H358Q408 54 424 62Q441 69 441 85Q441 98 437 117L417 220H185L139 139Q125 116 125 96Q125 73 140 64T196 54H219L211 0H-75L-68 54H-52Q10 54 71 157L419 736H481L612 114Q620
79 638 67T702 54H716L709 0ZM404 274L358 515L217 274H404ZM592 869Q592 824 561 793T483 761Q440 761 409 793T377 869T409 944T485 976T560 945T592 869ZM538 869Q538 891 523 906T485 922Q462 922 447 906T431 868Q431 847 446 831T484 815T522 830T538 869Z"
/>
<glyph unicode="6;" glyph-name="AE" horiz-adv-x="889" d="M784 0H190L198 54H222Q251 54 260 57T278 68Q288 79 305 144L339 271H168L77 126Q65 107 65 92Q65 55 145 54L138 0H-81L-74 54Q-53 58 -41 70T-3 122L291 572Q311 602 311 624Q311 644 292 656T239
668H208L215 722H903L863 477H814Q814 568 796 604Q764 668 676 668H665Q639 668 627 658T608 620L550 401H589Q634 401 660 429T712 523L759 516L669 181L622 188Q628 223 628 250Q628 347 567 347H535L472 111Q467 91 467 79Q467 54 514 54H526Q605 54 681 110T801
259L850 248L784 0ZM442 657L443 661Q443 667 434 667Q427 667 421 658L205 325H353L442 657Z" />
<glyph unicode="7;" glyph-name="Ccedilla" horiz-adv-x="759" d="M679 212Q640 101 558 42T361 -15L327 -62Q346 -59 360 -59Q397 -59 421 -80T446 -134Q446 -173 409 -197T311 -222Q243 -222 202 -193L224 -158Q267 -177 296 -177Q318 -177 331 -167T345
-139Q345 -124 333 -114T303 -104Q294 -104 274 -108L257 -91L317 -12Q183 5 109 85T35 292Q35 471 166 604T473 737Q590 737 657 655L713 712H759L701 426L652 432Q648 560 608 622T487 684Q383 684 320 576Q276 503 251 412T225 237Q225 150 271 99T397 47Q465
47 526 93T616 212H679Z" />
<glyph unicode="8;" glyph-name="Egrave" horiz-adv-x="741" d="M602 0H-41L-34 54H-20Q25 54 39 62T62 102L190 578Q203 629 203 641Q203 658 188 663T124 668H105L113 722H728L688 477H636Q634 586 601 627T478 668H440Q409 668 397 659T377 620L318 401H349Q413
401 446 428T505 523L558 516L468 181L415 188Q420 226 420 250Q420 300 401 323T336 347H304L241 111Q234 87 235 79Q235 54 289 54H325Q411 54 489 108T616 259L668 248L602 0ZM557 770H492L336 850Q310 864 323 889Q334 909 360 922T413 936Q435 936 447 929T476
896L557 770Z" />
<glyph unicode="9;" glyph-name="Eacute" horiz-adv-x="741" d="M602 0H-41L-34 54H-20Q25 54 39 62T62 102L190 578Q203 629 203 641Q203 658 188 663T124 668H105L113 722H728L688 477H636Q634 586 601 627T478 668H440Q409 668 397 659T377 620L318 401H349Q413
401 446 428T505 523L558 516L468 181L415 188Q420 226 420 250Q420 300 401 323T336 347H304L241 111Q234 87 235 79Q235 54 289 54H325Q411 54 489 108T616 259L668 248L602 0ZM608 889Q608 864 574 850L375 770H310L459 896Q488 921 504 928T543 936Q570 936
589 923T608 889Z" />
<glyph unicode="a;" glyph-name="Ecircumflex" horiz-adv-x="741" d="M602 0H-41L-34 54H-20Q25 54 39 62T62 102L190 578Q203 629 203 641Q203 658 188 663T124 668H105L113 722H728L688 477H636Q634 586 601 627T478 668H440Q409 668 397 659T377 620L318
401H349Q413 401 446 428T505 523L558 516L468 181L415 188Q420 226 420 250Q420 300 401 323T336 347H304L241 111Q234 87 235 79Q235 54 289 54H325Q411 54 489 108T616 259L668 248L602 0ZM640 775H570L462 853L310 775H230L418 932H540L640 775Z" />
<glyph unicode="b;" glyph-name="Edieresis" horiz-adv-x="741" d="M602 0H-41L-34 54H-20Q25 54 39 62T62 102L190 578Q203 629 203 641Q203 658 188 663T124 668H105L113 722H728L688 477H636Q634 586 601 627T478 668H440Q409 668 397 659T377 620L318
401H349Q413 401 446 428T505 523L558 516L468 181L415 188Q420 226 420 250Q420 300 401 323T336 347H304L241 111Q234 87 235 79Q235 54 289 54H325Q411 54 489 108T616 259L668 248L602 0ZM433 854Q433 824 412 803T361 782Q332 782 311 803T290 854T311 904T362
925Q391 925 412 904T433 854ZM623 854Q623 824 602 803T551 782Q522 782 501 803T480 854T501 904T552 925Q581 925 602 904T623 854Z" />
<glyph unicode="c;" glyph-name="Igrave" horiz-adv-x="444" d="M332 0H-41L-34 54H-14Q35 54 49 68Q56 74 59 83T76 144L192 578Q206 626 206 641Q206 658 191 663T127 668H105L113 722H486L479 668H458Q410 668 396 654Q389 649 386 640T369 578L253 144Q239
89 239 81Q239 64 254 59T318 54H340L332 0ZM455 770H390L234 850Q208 864 221 889Q232 909 258 922T311 936Q333 936 345 929T374 896L455 770Z" />
<glyph unicode="d;" glyph-name="Iacute" horiz-adv-x="444" d="M332 0H-41L-34 54H-14Q35 54 49 68Q56 74 59 83T76 144L192 578Q206 626 206 641Q206 658 191 663T127 668H105L113 722H486L479 668H458Q410 668 396 654Q389 649 386 640T369 578L253 144Q239
89 239 81Q239 64 254 59T318 54H340L332 0ZM506 889Q506 864 472 850L273 770H208L357 896Q386 921 402 928T441 936Q468 936 487 923T506 889Z" />
<glyph unicode="e;" glyph-name="Icircumflex" horiz-adv-x="444" d="M332 0H-41L-34 54H-14Q35 54 49 68Q56 74 59 83T76 144L192 578Q206 626 206 641Q206 658 191 663T127 668H105L113 722H486L479 668H458Q410 668 396 654Q389 649 386 640T369 578L253
144Q239 89 239 81Q239 64 254 59T318 54H340L332 0ZM538 775H468L360 853L208 775H128L316 932H438L538 775Z" />
<glyph unicode="f;" glyph-name="Idieresis" horiz-adv-x="444" d="M332 0H-41L-34 54H-14Q35 54 49 68Q56 74 59 83T76 144L192 578Q206 626 206 641Q206 658 191 663T127 668H105L113 722H486L479 668H458Q410 668 396 654Q389 649 386 640T369 578L253
144Q239 89 239 81Q239 64 254 59T318 54H340L332 0ZM331 854Q331 824 310 803T259 782Q230 782 209 803T188 854T209 904T260 925Q289 925 310 904T331 854ZM521 854Q521 824 500 803T449 782Q420 782 399 803T378 854T399 904T450 925Q479 925 500 904T521 854Z"
/>
<glyph unicode="&#xd0;" glyph-name="Eth" horiz-adv-x="833" d="M796 438Q796 338 756 249T645 100Q581 46 499 23T285 0H-49L-42 54H-22Q24 54 39 68Q45 74 48 83T66 144L116 339H23L40 402H133L182 578Q195 625 195 641Q195 658 181 663T119 668H98L105 722H463Q545
722 596 710T691 666Q796 593 796 438ZM610 501Q610 583 572 625T461 668H439Q405 668 391 656T365 605L309 402H460L443 339H292L237 127Q228 91 228 81Q228 54 281 54H310Q442 54 515 162Q556 224 583 320T610 501Z" />
<glyph unicode="&#xd1;" glyph-name="Ntilde" horiz-adv-x="852" d="M905 668Q854 668 824 641Q803 620 795 602T763 505L624 -14H544L248 552L158 217Q137 133 137 109Q137 80 154 67T214 54H235L227 0H-57L-50 54Q1 56 31 81Q52 100 60 119T91 217L204 636Q187
668 145 668H89L96 722H350L618 215L696 505Q718 589 718 613Q718 668 628 668L635 722H912L905 668ZM744 916Q742 866 705 828T620 790Q590 790 535 811Q482 832 463 832Q429 832 421 790H374Q378 845 413 880T498 916Q529 916 577 897Q630 876 647 876Q685 876
697 916H744Z" />
<glyph unicode="&#xd2;" glyph-name="Ograve" horiz-adv-x="833" d="M797 441Q797 255 662 120T342 -15Q203 -15 120 67T36 286Q36 377 73 461T173 605T318 701T490 737Q620 737 708 652T797 441ZM533 196Q570 267 591 354T613 520Q613 596 580 639T487 683Q377
683 300 528Q263 453 239 358T215 193Q215 122 249 81T342 39Q450 39 533 196ZM649 770H584L428 850Q402 864 415 889Q426 909 452 922T505 936Q527 936 539 929T568 896L649 770Z" />
<glyph unicode="&#xd3;" glyph-name="Oacute" horiz-adv-x="833" d="M797 441Q797 255 662 120T342 -15Q203 -15 120 67T36 286Q36 377 73 461T173 605T318 701T490 737Q620 737 708 652T797 441ZM533 196Q570 267 591 354T613 520Q613 596 580 639T487 683Q377
683 300 528Q263 453 239 358T215 193Q215 122 249 81T342 39Q450 39 533 196ZM700 889Q700 864 666 850L467 770H402L551 896Q580 921 596 928T635 936Q662 936 681 923T700 889Z" />
<glyph unicode="&#xd4;" glyph-name="Ocircumflex" horiz-adv-x="833" d="M797 441Q797 255 662 120T342 -15Q203 -15 120 67T36 286Q36 377 73 461T173 605T318 701T490 737Q620 737 708 652T797 441ZM533 196Q570 267 591 354T613 520Q613 596 580 639T487 683Q377
683 300 528Q263 453 239 358T215 193Q215 122 249 81T342 39Q450 39 533 196ZM732 775H662L554 853L402 775H322L510 932H632L732 775Z" />
<glyph unicode="&#xd5;" glyph-name="Otilde" horiz-adv-x="833" d="M797 441Q797 255 662 120T342 -15Q203 -15 120 67T36 286Q36 377 73 461T173 605T318 701T490 737Q620 737 708 652T797 441ZM533 196Q570 267 591 354T613 520Q613 596 580 639T487 683Q377
683 300 528Q263 453 239 358T215 193Q215 122 249 81T342 39Q450 39 533 196ZM733 916Q731 866 694 828T609 790Q579 790 524 811Q471 832 452 832Q418 832 410 790H363Q367 845 402 880T487 916Q518 916 566 897Q619 876 636 876Q674 876 686 916H733Z" />
<glyph unicode="&#xd6;" glyph-name="Odieresis" horiz-adv-x="833" d="M797 441Q797 255 662 120T342 -15Q203 -15 120 67T36 286Q36 377 73 461T173 605T318 701T490 737Q620 737 708 652T797 441ZM533 196Q570 267 591 354T613 520Q613 596 580 639T487 683Q377
683 300 528Q263 453 239 358T215 193Q215 122 249 81T342 39Q450 39 533 196ZM525 854Q525 824 504 803T453 782Q424 782 403 803T382 854T403 904T454 925Q483 925 504 904T525 854ZM715 854Q715 824 694 803T643 782Q614 782 593 803T572 854T593 904T644 925Q673
925 694 904T715 854Z" />
<glyph unicode="&#xd7;" glyph-name="multiply" horiz-adv-x="606" d="M516 102L446 32L298 179L150 32L80 102L227 250L80 398L150 468L298 321L446 468L516 398L369 250L516 102Z" />
<glyph unicode="&#xd8;" glyph-name="Oslash" horiz-adv-x="833" d="M797 441Q797 320 736 215T569 47T344 -15Q240 -15 172 27L82 -83H17L131 57Q36 140 36 286Q36 406 97 510T261 676T485 737Q581 737 652 697L713 773H778L692 667Q797 576 797 441ZM591 623Q557
682 487 682Q378 682 300 528Q264 453 240 359T215 197Q215 187 217 163L591 623ZM533 197Q569 266 591 353T613 514Q613 533 610 566L234 104Q268 40 341 40Q450 40 533 197Z" />
<glyph unicode="&#xd9;" glyph-name="Ugrave" horiz-adv-x="833" d="M888 668Q840 668 810 641Q789 622 781 603T749 506L675 227Q641 101 569 43T371 -15Q242 -15 165 43T88 196Q88 238 105 303L179 578Q193 632 193 641Q193 658 180 663T118 668H95L102 722H478L470
668H448Q396 668 382 654Q375 648 372 639T355 578L274 274Q259 219 259 186Q259 120 298 84T409 47Q483 47 534 93T615 254L682 506Q704 589 704 613Q704 668 614 668L621 722H895L888 668ZM648 770H583L427 850Q401 864 414 889Q425 909 451 922T504 936Q526
936 538 929T567 896L648 770Z" />
<glyph unicode="&#xda;" glyph-name="Uacute" horiz-adv-x="833" d="M888 668Q840 668 810 641Q789 622 781 603T749 506L675 227Q641 101 569 43T371 -15Q242 -15 165 43T88 196Q88 238 105 303L179 578Q193 632 193 641Q193 658 180 663T118 668H95L102 722H478L470
668H448Q396 668 382 654Q375 648 372 639T355 578L274 274Q259 219 259 186Q259 120 298 84T409 47Q483 47 534 93T615 254L682 506Q704 589 704 613Q704 668 614 668L621 722H895L888 668ZM699 889Q699 864 665 850L466 770H401L550 896Q579 921 595 928T634
936Q661 936 680 923T699 889Z" />
<glyph unicode="&#xdb;" glyph-name="Ucircumflex" horiz-adv-x="833" d="M888 668Q840 668 810 641Q789 622 781 603T749 506L675 227Q641 101 569 43T371 -15Q242 -15 165 43T88 196Q88 238 105 303L179 578Q193 632 193 641Q193 658 180 663T118 668H95L102
722H478L470 668H448Q396 668 382 654Q375 648 372 639T355 578L274 274Q259 219 259 186Q259 120 298 84T409 47Q483 47 534 93T615 254L682 506Q704 589 704 613Q704 668 614 668L621 722H895L888 668ZM731 775H661L553 853L401 775H321L509 932H631L731 775Z"
/>
<glyph unicode="&#xdc;" glyph-name="Udieresis" horiz-adv-x="833" d="M888 668Q840 668 810 641Q789 622 781 603T749 506L675 227Q641 101 569 43T371 -15Q242 -15 165 43T88 196Q88 238 105 303L179 578Q193 632 193 641Q193 658 180 663T118 668H95L102 722H478L470
668H448Q396 668 382 654Q375 648 372 639T355 578L274 274Q259 219 259 186Q259 120 298 84T409 47Q483 47 534 93T615 254L682 506Q704 589 704 613Q704 668 614 668L621 722H895L888 668ZM524 854Q524 824 503 803T452 782Q423 782 402 803T381 854T402 904T453
925Q482 925 503 904T524 854ZM714 854Q714 824 693 803T642 782Q613 782 592 803T571 854T592 904T643 925Q672 925 693 904T714 854Z" />
<glyph unicode="&#xdd;" glyph-name="Yacute" horiz-adv-x="704" d="M770 668Q723 667 692 646T616 567L416 307L373 144Q359 91 359 81Q359 64 374 59T439 54H464L457 0H68L75 54H94Q156 54 170 68Q177 74 180 83T197 144L240 307L123 611Q110 645 93 656T38
668H15L22 722H388L381 668H338Q312 668 303 663T294 644Q294 632 303 610L394 379L553 589Q570 611 570 632Q570 668 513 668H477L485 722H777L770 668ZM627 889Q627 864 593 850L394 770H329L478 896Q507 921 523 928T562 936Q589 936 608 923T627 889Z" />
<glyph unicode="&#xde;" glyph-name="Thorn" horiz-adv-x="741" d="M690 391Q690 277 607 222T336 166H261L256 144Q242 83 242 81Q242 64 257 59T321 54H343L335 0H-38L-31 54H-13Q38 54 52 68Q59 74 62 83T79 144L195 578Q210 634 209 641Q209 658 194 663T130
668H108L116 722H489L482 668H465Q415 668 404 661T383 620L372 578H433Q571 578 630 530T690 391ZM511 419Q511 468 486 496T418 524H407Q375 524 364 515T343 471L276 220H319Q416 220 463 272T511 419Z" />
<glyph unicode="&#xdf;" glyph-name="germandbls" horiz-adv-x="574" d="M508 221Q508 117 445 51T284 -15Q239 -15 198 1L214 55Q236 32 259 32Q290 32 314 82T348 192T358 299Q358 364 325 386Q323 387 309 393T283 405T272 420Q272 438 300 438Q339 438 354
454Q371 471 383 512T395 597Q395 640 380 666T339 692Q304 692 282 650T242 506L184 169Q154 -2 98 -180L-66 -205Q-24 -101 -4 -29T46 186L92 415Q126 586 185 661T344 737Q423 737 473 693T523 579Q523 515 483 470T365 410Q439 380 473 336T508 221Z" />
<glyph unicode="&#xe0;" glyph-name="agrave" horiz-adv-x="667" d="M646 157Q600 79 544 32T436 -15Q395 -15 373 9T351 73Q315 26 278 6T188 -14Q112 -14 64 37T15 167Q15 288 102 383T301 479Q390 479 426 416L440 464H597L499 132Q489 93 489 86Q489 80 493
75T503 70Q516 70 547 104T607 182L646 157ZM395 351Q395 383 378 403T333 424Q275 424 227 326T178 135Q178 99 194 78T239 56Q278 56 315 109T374 230T395 351ZM461 538H407L288 626Q268 641 283 670Q295 692 319 707T365 722Q383 722 391 714T411 677L461 538Z"
/>
<glyph unicode="&#xe1;" glyph-name="aacute" horiz-adv-x="667" d="M646 157Q600 79 544 32T436 -15Q395 -15 373 9T351 73Q315 26 278 6T188 -14Q112 -14 64 37T15 167Q15 288 102 383T301 479Q390 479 426 416L440 464H597L499 132Q489 93 489 86Q489 80 493
75T503 70Q516 70 547 104T607 182L646 157ZM395 351Q395 383 378 403T333 424Q275 424 227 326T178 135Q178 99 194 78T239 56Q278 56 315 109T374 230T395 351ZM514 670Q514 642 486 626L320 538H266L390 677Q416 705 429 713T460 722Q483 722 498 707T514 670Z"
/>
<glyph unicode="&#xe2;" glyph-name="acircumflex" horiz-adv-x="667" d="M646 157Q600 79 544 32T436 -15Q395 -15 373 9T351 73Q315 26 278 6T188 -14Q112 -14 64 37T15 167Q15 288 102 383T301 479Q390 479 426 416L440 464H597L499 132Q489 93 489 86Q489
80 493 75T503 70Q516 70 547 104T607 182L646 157ZM395 351Q395 383 378 403T333 424Q275 424 227 326T178 135Q178 99 194 78T239 56Q278 56 315 109T374 230T395 351ZM536 543H477L387 629L261 543H194L351 717H452L536 543Z" />
<glyph unicode="&#xe3;" glyph-name="atilde" horiz-adv-x="667" d="M646 157Q600 79 544 32T436 -15Q395 -15 373 9T351 73Q315 26 278 6T188 -14Q112 -14 64 37T15 167Q15 288 102 383T301 479Q390 479 426 416L440 464H597L499 132Q489 93 489 86Q489 80 493
75T503 70Q516 70 547 104T607 182L646 157ZM395 351Q395 383 378 403T333 424Q275 424 227 326T178 135Q178 99 194 78T239 56Q278 56 315 109T374 230T395 351ZM573 693Q571 643 534 605T449 567Q419 567 364 588Q311 609 292 609Q258 609 250 567H203Q207 622
242 657T327 693Q358 693 406 674Q459 653 476 653Q514 653 526 693H573Z" />
<glyph unicode="&#xe4;" glyph-name="adieresis" horiz-adv-x="667" d="M646 157Q600 79 544 32T436 -15Q395 -15 373 9T351 73Q315 26 278 6T188 -14Q112 -14 64 37T15 167Q15 288 102 383T301 479Q390 479 426 416L440 464H597L499 132Q489 93 489 86Q489 80
493 75T503 70Q516 70 547 104T607 182L646 157ZM395 351Q395 383 378 403T333 424Q275 424 227 326T178 135Q178 99 194 78T239 56Q278 56 315 109T374 230T395 351ZM365 631Q365 601 344 580T293 559Q264 559 243 580T222 631T243 681T294 702Q323 702 344 681T365
631ZM555 631Q555 601 534 580T483 559Q454 559 433 580T412 631T433 681T484 702Q513 702 534 681T555 631Z" />
<glyph unicode="&#xe5;" glyph-name="aring" horiz-adv-x="667" d="M646 157Q600 79 544 32T436 -15Q395 -15 373 9T351 73Q315 26 278 6T188 -14Q112 -14 64 37T15 167Q15 288 102 383T301 479Q390 479 426 416L440 464H597L499 132Q489 93 489 86Q489 80 493
75T503 70Q516 70 547 104T607 182L646 157ZM395 351Q395 383 378 403T333 424Q275 424 227 326T178 135Q178 99 194 78T239 56Q278 56 315 109T374 230T395 351ZM496 631Q496 586 465 555T387 523Q344 523 313 555T281 631T313 706T389 738T464 707T496 631ZM442
631Q442 653 427 668T389 684Q366 684 351 668T335 630Q335 609 350 593T388 577T426 592T442 631Z" />
<glyph unicode="&#xe6;" glyph-name="ae" horiz-adv-x="815" d="M726 91Q632 -15 495 -15Q352 -15 319 98Q254 -15 118 -15Q53 -15 17 13T-19 90Q-19 161 57 200T324 264Q341 329 341 360Q341 393 315 412T245 432Q194 432 194 415Q194 411 208 387T223 354Q223
327 201 309T146 290T91 312T68 366Q68 416 116 447T241 479Q306 479 347 463T421 410Q459 442 511 460T614 479Q681 479 727 444T774 358Q774 288 691 239T456 181Q453 158 453 136Q453 93 476 69T539 44Q578 44 613 62T691 126L726 91ZM311 214Q228 206 184 179T139
109Q139 86 153 71T190 56Q240 56 277 113Q291 136 311 214ZM652 385Q652 407 641 419T609 432Q562 432 522 376T464 228Q542 239 597 283T652 385Z" />
<glyph unicode="&#xe7;" glyph-name="ccedilla" horiz-adv-x="537" d="M442 116Q337 -15 214 -15Q206 -15 199 -14L164 -61Q185 -58 198 -58Q235 -58 259 -79T284 -133Q284 -172 247 -196T149 -220Q81 -220 40 -191L62 -156Q105 -175 133 -175Q155 -175 169 -165T183
-137Q183 -122 171 -112T140 -102Q131 -102 111 -106L95 -89L157 -10Q83 5 43 52T3 171Q3 296 96 387T316 479Q394 479 440 444T487 350Q487 308 464 283T401 257Q367 257 345 277T323 329Q323 368 361 391Q373 398 373 407Q373 418 361 425T331 432Q267 432 220
345Q197 303 183 245T168 140Q168 99 191 73T250 46Q321 46 406 147L442 116Z" />
<glyph unicode="&#xe8;" glyph-name="egrave" horiz-adv-x="519" d="M430 91Q337 -14 202 -14Q103 -14 51 33T-2 171Q-2 294 93 386T314 479Q384 479 431 445T478 358Q478 254 308 205Q242 185 159 181Q157 155 157 137Q157 94 180 70T243 45Q282 45 316 63T395
126L430 91ZM356 385Q356 407 344 419T312 432Q265 432 225 376T168 228Q211 234 238 244Q289 263 322 303T356 385ZM437 538H383L264 626Q244 641 259 670Q271 692 295 707T341 722Q359 722 367 714T387 677L437 538Z" />
<glyph unicode="&#xe9;" glyph-name="eacute" horiz-adv-x="519" d="M430 91Q337 -14 202 -14Q103 -14 51 33T-2 171Q-2 294 93 386T314 479Q384 479 431 445T478 358Q478 254 308 205Q242 185 159 181Q157 155 157 137Q157 94 180 70T243 45Q282 45 316 63T395
126L430 91ZM356 385Q356 407 344 419T312 432Q265 432 225 376T168 228Q211 234 238 244Q289 263 322 303T356 385ZM491 670Q491 642 463 626L297 538H243L367 677Q393 705 406 713T437 722Q460 722 475 707T491 670Z" />
<glyph unicode="&#xea;" glyph-name="ecircumflex" horiz-adv-x="519" d="M430 91Q337 -14 202 -14Q103 -14 51 33T-2 171Q-2 294 93 386T314 479Q384 479 431 445T478 358Q478 254 308 205Q242 185 159 181Q157 155 157 137Q157 94 180 70T243 45Q282 45 316
63T395 126L430 91ZM356 385Q356 407 344 419T312 432Q265 432 225 376T168 228Q211 234 238 244Q289 263 322 303T356 385ZM512 543H453L363 629L237 543H170L327 717H428L512 543Z" />
<glyph unicode="&#xeb;" glyph-name="edieresis" horiz-adv-x="519" d="M430 91Q337 -14 202 -14Q103 -14 51 33T-2 171Q-2 294 93 386T314 479Q384 479 431 445T478 358Q478 254 308 205Q242 185 159 181Q157 155 157 137Q157 94 180 70T243 45Q282 45 316 63T395
126L430 91ZM356 385Q356 407 344 419T312 432Q265 432 225 376T168 228Q211 234 238 244Q289 263 322 303T356 385ZM341 631Q341 601 320 580T269 559Q240 559 219 580T198 631T219 681T270 702Q299 702 320 681T341 631ZM531 631Q531 601 510 580T459 559Q430
559 409 580T388 631T409 681T460 702Q489 702 510 681T531 631Z" />
<glyph unicode="&#xec;" glyph-name="igrave" horiz-adv-x="389" d="M353 149Q302 63 253 24T146 -15Q101 -15 72 10T42 75Q42 98 57 149L108 319Q123 369 123 386Q123 405 111 411T62 417H38L45 464L312 478L207 122Q197 88 197 80Q197 64 213 64Q243 64 314
177L353 149ZM342 538H288L169 626Q149 641 164 670Q176 692 200 707T246 722Q264 722 272 714T292 677L342 538Z" />
<glyph unicode="&#xed;" glyph-name="iacute" horiz-adv-x="389" d="M353 149Q302 63 253 24T146 -15Q101 -15 72 10T42 75Q42 98 57 149L108 319Q123 369 123 386Q123 405 111 411T62 417H38L45 464L312 478L207 122Q197 88 197 80Q197 64 213 64Q243 64 314
177L353 149ZM395 670Q395 642 367 626L201 538H147L271 677Q297 705 310 713T341 722Q364 722 379 707T395 670Z" />
<glyph unicode="&#xee;" glyph-name="icircumflex" horiz-adv-x="389" d="M353 149Q302 63 253 24T146 -15Q101 -15 72 10T42 75Q42 98 57 149L108 319Q123 369 123 386Q123 405 111 411T62 417H38L45 464L312 478L207 122Q197 88 197 80Q197 64 213 64Q243 64
314 177L353 149ZM417 543H358L268 629L142 543H75L232 717H333L417 543Z" />
<glyph unicode="&#xef;" glyph-name="idieresis" horiz-adv-x="389" d="M353 149Q302 63 253 24T146 -15Q101 -15 72 10T42 75Q42 98 57 149L108 319Q123 369 123 386Q123 405 111 411T62 417H38L45 464L312 478L207 122Q197 88 197 80Q197 64 213 64Q243 64 314
177L353 149ZM246 631Q246 601 225 580T174 559Q145 559 124 580T103 631T124 681T175 702Q204 702 225 681T246 631ZM436 631Q436 601 415 580T364 559Q335 559 314 580T293 631T314 681T365 702Q394 702 415 681T436 631Z" />
<glyph unicode="&#xf0;" glyph-name="eth" horiz-adv-x="574" d="M540 310Q540 161 450 74T220 -14Q122 -14 66 41T10 187Q10 305 103 392T321 479Q356 479 392 470Q379 541 313 638L174 567L148 618L275 682Q253 710 195 747L229 780Q287 755 338 715L481 788L507
737L383 673Q471 572 505 493T540 310ZM335 134Q356 187 370 251T385 356Q385 390 367 411T320 432Q280 432 243 380T186 252T165 107Q165 70 182 50T228 29Q294 29 335 134Z" />
<glyph unicode="&#xf1;" glyph-name="ntilde" horiz-adv-x="685" d="M642 152Q584 63 535 24T431 -15Q384 -15 357 9T329 76Q329 106 349 163L411 332Q420 356 420 368Q420 378 411 386T390 394Q353 394 295 325Q236 254 198 127L160 0H3L98 319Q113 371 113 386Q113
405 101 411T52 417H28L35 464L285 478L253 346Q309 418 356 448T458 479Q507 479 539 450T571 376Q571 330 540 248L493 120Q483 90 483 82Q483 76 487 71T497 66Q511 66 533 88T594 166L603 177L642 152ZM588 693Q586 643 549 605T464 567Q434 567 379 588Q326
609 307 609Q273 609 265 567H218Q222 622 257 657T342 693Q373 693 421 674Q474 653 491 653Q529 653 541 693H588Z" />
<glyph unicode="&#xf2;" glyph-name="ograve" horiz-adv-x="574" d="M540 285Q540 158 448 72T220 -14Q124 -14 70 37Q42 62 26 102T10 187Q10 306 103 392T324 479Q422 479 484 425Q540 377 540 285ZM335 134Q356 186 370 250T385 354Q385 389 367 410T320 432Q256
432 210 322Q191 275 178 214T165 108Q165 71 182 50T229 29Q294 29 335 134ZM451 538H397L278 626Q258 641 273 670Q285 692 309 707T355 722Q373 722 381 714T401 677L451 538Z" />
<glyph unicode="&#xf3;" glyph-name="oacute" horiz-adv-x="574" d="M540 285Q540 158 448 72T220 -14Q124 -14 70 37Q42 62 26 102T10 187Q10 306 103 392T324 479Q422 479 484 425Q540 377 540 285ZM335 134Q356 186 370 250T385 354Q385 389 367 410T320 432Q256
432 210 322Q191 275 178 214T165 108Q165 71 182 50T229 29Q294 29 335 134ZM505 670Q505 642 477 626L311 538H257L381 677Q407 705 420 713T451 722Q474 722 489 707T505 670Z" />
<glyph unicode="&#xf4;" glyph-name="ocircumflex" horiz-adv-x="574" d="M540 285Q540 158 448 72T220 -14Q124 -14 70 37Q42 62 26 102T10 187Q10 306 103 392T324 479Q422 479 484 425Q540 377 540 285ZM335 134Q356 186 370 250T385 354Q385 389 367 410T320
432Q256 432 210 322Q191 275 178 214T165 108Q165 71 182 50T229 29Q294 29 335 134ZM526 543H467L377 629L251 543H184L341 717H442L526 543Z" />
<glyph unicode="&#xf5;" glyph-name="otilde" horiz-adv-x="574" d="M540 285Q540 158 448 72T220 -14Q124 -14 70 37Q42 62 26 102T10 187Q10 306 103 392T324 479Q422 479 484 425Q540 377 540 285ZM335 134Q356 186 370 250T385 354Q385 389 367 410T320 432Q256
432 210 322Q191 275 178 214T165 108Q165 71 182 50T229 29Q294 29 335 134ZM563 693Q561 643 524 605T439 567Q409 567 354 588Q301 609 282 609Q248 609 240 567H193Q197 622 232 657T317 693Q348 693 396 674Q449 653 466 653Q504 653 516 693H563Z" />
<glyph unicode="&#xf6;" glyph-name="odieresis" horiz-adv-x="574" d="M540 285Q540 158 448 72T220 -14Q124 -14 70 37Q42 62 26 102T10 187Q10 306 103 392T324 479Q422 479 484 425Q540 377 540 285ZM335 134Q356 186 370 250T385 354Q385 389 367 410T320
432Q256 432 210 322Q191 275 178 214T165 108Q165 71 182 50T229 29Q294 29 335 134ZM355 631Q355 601 334 580T283 559Q254 559 233 580T212 631T233 681T284 702Q313 702 334 681T355 631ZM545 631Q545 601 524 580T473 559Q444 559 423 580T402 631T423 681T474
702Q503 702 524 681T545 631Z" />
<glyph unicode="&#xf7;" glyph-name="divide" horiz-adv-x="606" d="M557 200H39V300H557V200ZM392 431Q392 392 365 365T298 337T232 364T204 431Q204 469 231 497T298 525T364 497T392 431ZM392 70Q392 31 365 4T298 -24T232 3T204 70Q204 108 231 136T298 164T364
136T392 70Z" />
<glyph unicode="&#xf8;" glyph-name="oslash" horiz-adv-x="574" d="M540 285Q540 158 448 72T221 -14Q194 -14 167 -10L100 -126H46L120 4Q67 27 39 75T10 187Q10 303 102 390T319 478Q349 478 388 471L449 578H503L433 457Q540 410 540 285ZM358 419Q340 431
319 431Q256 431 210 322Q191 275 178 214T165 108Q165 106 167 86L358 419ZM335 133Q356 185 370 249T385 353Q385 361 384 370L194 38Q209 29 228 29Q295 29 335 133Z" />
<glyph unicode="&#xf9;" glyph-name="ugrave" horiz-adv-x="685" d="M639 152Q580 62 532 24T427 -14Q330 -14 330 71Q330 87 331 97Q282 38 239 12T148 -14Q99 -14 69 16T38 95Q38 129 59 198L94 319Q110 371 110 386Q110 405 98 411T49 417H39L46 464L299 478L209
174Q208 170 206 164T202 149T197 133Q191 112 190 109Q188 97 188 95Q188 85 195 78T213 70Q232 70 264 95T323 159Q366 218 391 299L439 464H597L504 152Q488 96 488 85Q488 80 492 76T502 71Q515 71 542 101T601 180L639 152ZM484 538H430L311 626Q291 641 306
670Q318 692 342 707T388 722Q406 722 414 714T434 677L484 538Z" />
<glyph unicode="&#xfa;" glyph-name="uacute" horiz-adv-x="685" d="M639 152Q580 62 532 24T427 -14Q330 -14 330 71Q330 87 331 97Q282 38 239 12T148 -14Q99 -14 69 16T38 95Q38 129 59 198L94 319Q110 371 110 386Q110 405 98 411T49 417H39L46 464L299 478L209
174Q208 170 206 164T202 149T197 133Q191 112 190 109Q188 97 188 95Q188 85 195 78T213 70Q232 70 264 95T323 159Q366 218 391 299L439 464H597L504 152Q488 96 488 85Q488 80 492 76T502 71Q515 71 542 101T601 180L639 152ZM538 670Q538 642 510 626L344 538H290L414
677Q440 705 453 713T484 722Q507 722 522 707T538 670Z" />
<glyph unicode="&#xfb;" glyph-name="ucircumflex" horiz-adv-x="685" d="M639 152Q580 62 532 24T427 -14Q330 -14 330 71Q330 87 331 97Q282 38 239 12T148 -14Q99 -14 69 16T38 95Q38 129 59 198L94 319Q110 371 110 386Q110 405 98 411T49 417H39L46 464L299
478L209 174Q208 170 206 164T202 149T197 133Q191 112 190 109Q188 97 188 95Q188 85 195 78T213 70Q232 70 264 95T323 159Q366 218 391 299L439 464H597L504 152Q488 96 488 85Q488 80 492 76T502 71Q515 71 542 101T601 180L639 152ZM559 543H500L410 629L284
543H217L374 717H475L559 543Z" />
<glyph unicode="&#xfc;" glyph-name="udieresis" horiz-adv-x="685" d="M639 152Q580 62 532 24T427 -14Q330 -14 330 71Q330 87 331 97Q282 38 239 12T148 -14Q99 -14 69 16T38 95Q38 129 59 198L94 319Q110 371 110 386Q110 405 98 411T49 417H39L46 464L299
478L209 174Q208 170 206 164T202 149T197 133Q191 112 190 109Q188 97 188 95Q188 85 195 78T213 70Q232 70 264 95T323 159Q366 218 391 299L439 464H597L504 152Q488 96 488 85Q488 80 492 76T502 71Q515 71 542 101T601 180L639 152ZM388 631Q388 601 367 580T316
559Q287 559 266 580T245 631T266 681T317 702Q346 702 367 681T388 631ZM578 631Q578 601 557 580T506 559Q477 559 456 580T435 631T456 681T507 702Q536 702 557 681T578 631Z" />
<glyph unicode="&#xfd;" glyph-name="yacute" horiz-adv-x="519" d="M492 417Q492 374 452 282T345 83Q256 -64 181 -139Q119 -202 40 -202Q-8 -202 -37 -177T-66 -111Q-66 -79 -46 -59T5 -38Q35 -38 54 -56T74 -102Q74 -114 68 -130L67 -136Q67 -146 80 -146Q100
-146 132 -121T190 -58L219 -18L119 320Q111 348 106 356T90 365Q77 365 67 346T36 258L-7 271Q42 479 155 479Q209 479 233 432Q253 394 270 333L326 143Q393 256 393 301Q393 323 374 354Q353 385 353 413Q353 442 373 460T424 479T473 463T492 417ZM456 670Q456
642 428 626L262 538H208L332 677Q358 705 371 713T402 722Q425 722 440 707T456 670Z" />
<glyph unicode="&#xfe;" glyph-name="thorn" horiz-adv-x="648" d="M590 298Q590 175 503 80T303 -15Q217 -15 177 50L143 -65Q127 -120 127 -129Q127 -155 184 -155H199L192 -202H-118L-111 -155H-107Q-58 -155 -44 -141Q-37 -135 -34 -126T-15 -65L177 581Q192
634 192 645Q192 664 180 670T130 676H106L113 737H380L289 428Q351 479 418 479Q495 479 542 430T590 298ZM430 336Q430 369 413 389T366 409Q312 409 270 335Q247 293 227 225T206 117Q206 86 226 65T275 43Q316 43 353 95T410 214T430 336Z" />
<glyph unicode="&#xff;" glyph-name="ydieresis" horiz-adv-x="519" d="M492 417Q492 374 452 282T345 83Q256 -64 181 -139Q119 -202 40 -202Q-8 -202 -37 -177T-66 -111Q-66 -79 -46 -59T5 -38Q35 -38 54 -56T74 -102Q74 -114 68 -130L67 -136Q67 -146 80 -146Q100
-146 132 -121T190 -58L219 -18L119 320Q111 348 106 356T90 365Q77 365 67 346T36 258L-7 271Q42 479 155 479Q209 479 233 432Q253 394 270 333L326 143Q393 256 393 301Q393 323 374 354Q353 385 353 413Q353 442 373 460T424 479T473 463T492 417ZM307 631Q307
601 286 580T235 559Q206 559 185 580T164 631T185 681T236 702Q265 702 286 681T307 631ZM497 631Q497 601 476 580T425 559Q396 559 375 580T354 631T375 681T426 702Q455 702 476 681T497 631Z" />
</font>
</defs>
</svg>
